<svg version="1.1" id="Layer_1" xmlns="http://www.w3.org/2000/svg" xmlns:xlink="http://www.w3.org/1999/xlink" x="0px" y="0px"
	 width="100%" viewBox="0 0 991 646" enable-background="new 0 0 991 646" xml:space="preserve">
<path fill="#EEF2F2" opacity="1.000000" stroke="none" 
	d="
M3.000000,1.000000 
	C332.614899,1.000000 662.229797,1.000000 991.922363,1.000000 
	C991.922363,216.247742 991.922363,431.495514 991.922363,647.000000 
	C662.637329,647.000000 333.274628,647.000000 3.455440,646.540283 
	C2.999318,431.053711 2.999659,216.026855 3.000000,1.000000 
M456.427185,450.464813 
	C456.834747,450.771942 457.242340,451.079071 457.939514,450.990692 
	C457.939514,450.990692 457.658356,451.388580 458.055023,451.998962 
	C465.154358,455.349274 470.313690,454.559692 474.489349,449.398651 
	C474.489349,449.398651 474.536377,449.322021 474.912598,448.985535 
	C474.948120,448.656067 474.983643,448.326599 475.189819,447.735565 
	C475.189819,447.735565 475.154541,447.425232 475.761383,446.904694 
	C479.191498,432.055573 478.265961,417.022766 477.188995,402.059845 
	C476.891296,397.923645 474.512360,393.937225 473.017944,389.980469 
	C473.017944,389.980469 473.117493,389.911743 472.769257,389.267273 
	C468.208282,386.606934 463.596710,385.976074 458.969635,388.972778 
	C458.969635,388.972778 458.948975,388.885468 458.315704,388.958679 
	C457.589691,389.655212 456.863678,390.351746 455.647675,391.581635 
	C454.791840,394.238037 453.242615,396.882538 453.196625,399.552887 
	C452.959503,413.319855 452.958588,427.096588 453.246216,440.862183 
	C453.304443,443.648010 454.961517,446.400391 455.894867,449.071228 
	C455.894867,449.071228 455.798462,449.088165 455.931641,449.580963 
	C456.040527,449.711456 456.149414,449.841980 456.427185,450.464813 
M384.019409,445.393402 
	C383.691162,445.217896 383.362885,445.042389 382.950012,444.444641 
	C382.848572,444.135651 382.636169,443.963806 382.089691,443.026398 
	C381.776886,426.332092 381.492615,409.637115 381.105743,392.944550 
	C381.068390,391.332397 380.394379,389.734955 379.184753,387.989624 
	C377.784088,388.039001 376.383392,388.088379 374.121490,388.080383 
	C373.766235,388.533600 373.093445,388.992462 373.101379,389.439209 
	C373.418762,407.272766 373.797821,425.105194 374.092072,443.700439 
	C374.882874,448.644989 376.970551,452.498779 382.327057,453.714172 
	C390.763306,455.628357 396.600891,450.912720 396.925842,440.821747 
	C397.472168,423.856232 397.420685,406.871368 397.586823,389.894287 
	C397.592529,389.308624 397.234894,388.719421 397.092010,388.273560 
	C394.389923,388.273560 391.974335,388.273560 389.199066,388.273560 
	C389.199066,390.374817 389.206970,392.180664 389.197815,393.986481 
	C389.122742,408.805603 389.178375,423.627777 388.837341,438.440826 
	C388.779541,440.952332 387.012695,443.424469 385.386200,445.854889 
	C384.953583,445.808472 384.520996,445.762054 384.034576,445.888641 
	C384.034576,445.888641 384.212708,445.921844 384.019409,445.393402 
M349.799438,434.548645 
	C352.224487,434.479553 354.649536,434.410461 357.095703,435.163910 
	C357.163422,435.429688 357.231110,435.695435 357.157471,436.887909 
	C357.157471,442.187439 357.157471,447.486938 357.157471,452.840332 
	C359.927704,452.840332 362.355255,452.840332 365.076019,452.840332 
	C365.147552,451.854126 365.257202,451.058777 365.255249,450.263702 
	C365.217987,434.953033 365.283997,419.640503 365.032501,404.333221 
	C364.974640,400.812744 363.817505,397.310333 363.176300,393.920502 
	C363.176300,393.920502 363.287842,393.872742 363.153656,393.222565 
	C362.752777,392.489349 362.351898,391.756134 361.660706,390.375031 
	C355.224976,385.086487 347.369415,386.234467 342.951782,393.785370 
	C342.349823,400.844391 341.747833,407.903412 341.002533,415.894806 
	C341.048218,427.933472 341.093933,439.972137 341.414124,452.815430 
	C343.821808,452.815430 346.229523,452.815430 349.006775,452.815430 
	C349.006775,446.761688 349.006775,440.881439 348.998779,435.001221 
	C348.998779,435.001221 349.004181,435.010376 349.799438,434.548645 
M500.821625,427.438080 
	C498.538025,416.518005 496.339569,405.578857 493.901825,394.693298 
	C493.390228,392.408966 491.998108,390.321838 490.214569,388.001556 
	C489.138763,388.050049 488.062988,388.098541 486.126129,388.081879 
	C485.760712,389.199432 485.080292,390.315948 485.076782,391.434662 
	C485.014374,411.176270 485.029083,430.918182 485.057404,450.659973 
	C485.058472,451.421631 485.362488,452.182800 485.470184,452.686371 
	C488.179352,452.686371 490.578613,452.686371 492.980133,452.686371 
	C492.980133,445.191284 492.980133,438.070648 493.224152,430.188171 
	C493.806702,430.425873 494.838531,430.574921 494.905518,430.914398 
	C496.286102,437.908051 497.547089,444.925232 498.873840,451.929779 
	C498.952301,452.344055 499.384399,452.691345 499.704407,453.144012 
	C501.055664,453.076843 502.351990,453.012421 503.818573,452.939514 
	C505.355286,444.623596 506.851990,436.524109 508.348694,428.424591 
	C508.723022,428.464905 509.097351,428.505219 509.471680,428.545502 
	C509.471680,436.630402 509.471680,444.715271 509.471680,452.752991 
	C512.552429,452.752991 515.118103,452.752991 517.931335,452.752991 
	C517.931335,431.780792 517.953552,411.168091 517.849548,390.556030 
	C517.845459,389.738800 516.640808,388.927612 515.202637,387.997711 
	C514.136353,388.035919 513.070129,388.074097 511.242523,388.066650 
	C509.532532,394.678406 507.813110,401.287720 506.115051,407.902527 
	C504.374359,414.683533 502.654541,421.469910 500.821625,427.438080 
M605.853699,420.171051 
	C605.891785,419.426697 605.929871,418.682373 606.537659,417.486542 
	C609.672363,410.134125 609.693298,402.426178 607.735229,394.984650 
	C607.041870,392.349609 603.682800,389.050964 601.076233,388.569336 
	C595.694214,387.574951 589.999939,388.269867 584.428467,388.269867 
	C584.428467,410.022736 584.428467,431.290436 584.428467,452.776184 
	C587.188293,452.776184 589.719482,452.776184 593.013794,452.776184 
	C593.013794,442.321838 593.013794,432.197937 593.785461,422.055481 
	C595.498047,422.419464 597.210571,422.783478 598.942017,423.065521 
	C598.942017,423.065521 598.859009,423.078979 599.188049,423.803253 
	C600.453674,433.429871 601.719299,443.056458 603.003784,452.826813 
	C605.054810,452.826813 607.472900,452.826813 610.457092,452.826813 
	C609.754150,445.305450 609.217285,438.044342 608.338074,430.824921 
	C607.928894,427.465424 606.855591,424.186768 606.052185,420.961426 
	C606.052185,420.961426 606.137329,420.918945 605.853699,420.171051 
M425.849945,449.915527 
	C426.889435,447.163300 428.767853,444.429199 428.827728,441.655762 
	C429.139130,427.234650 429.318878,412.792938 428.859741,398.380219 
	C428.622437,390.930481 424.506653,387.974915 416.111450,387.996368 
	C413.075745,388.034973 410.040070,388.073547 406.140228,388.046844 
	C405.782776,389.168488 405.117157,390.289185 405.113647,391.411957 
	C405.051971,411.162811 405.066101,430.913910 405.091797,450.664948 
	C405.092804,451.431854 405.372620,452.198395 405.541412,453.061798 
	C409.581665,453.061798 413.438019,453.416962 417.189880,452.943604 
	C419.935852,452.597168 422.544464,451.162079 425.003662,450.004883 
	C425.003662,450.004883 425.215698,450.213928 425.849945,449.915527 
M563.058716,395.647125 
	C563.058716,395.647125 563.272766,395.895996 563.160950,396.840546 
	C563.160950,415.472046 563.160950,434.103577 563.160950,452.715454 
	C566.004395,452.715454 568.548096,452.715454 571.565430,452.715454 
	C571.565430,433.449982 571.565430,414.525818 571.565430,395.490631 
	C573.188904,395.365021 574.335754,395.279633 575.482117,395.186707 
	C576.746155,395.084259 578.009705,394.974915 580.287598,394.783234 
	C579.411438,392.225983 578.711853,390.184174 577.083069,388.001282 
	C570.384399,388.049927 563.685730,388.098541 556.161865,388.073669 
	C555.646729,390.246887 555.131592,392.420135 554.444031,395.320557 
	C557.919067,395.320557 560.505554,395.320557 563.058716,395.647125 
M518.169373,142.941132 
	C510.103546,142.390549 502.037720,141.839966 493.153168,141.142746 
	C489.761414,141.488022 486.369659,141.833282 482.372162,142.180466 
	C482.050079,142.411194 481.727997,142.641922 480.702271,142.604111 
	C479.467651,142.794205 478.233002,142.984314 476.230011,143.197510 
	C473.264893,144.131638 470.299805,145.065750 466.895844,146.514328 
	C464.937836,146.981644 462.979828,147.448959 460.271057,147.985214 
	C456.490143,149.637039 452.490204,150.923767 448.981262,153.028915 
	C444.104095,155.954910 439.595093,159.494492 434.202942,162.842102 
	C423.295868,169.365494 415.616364,179.029358 408.358398,189.409805 
	C408.358398,189.409805 408.326996,189.627213 407.990753,189.975098 
	C407.856415,190.270248 407.759583,190.577225 407.143921,191.278763 
	C395.832031,209.121246 390.355896,228.698181 390.576843,249.729202 
	C390.777161,268.800140 395.323364,286.811584 405.760254,303.766388 
	C406.132721,304.269348 406.505188,304.772308 406.928894,305.654114 
	C406.992706,305.924866 407.153839,306.111633 407.631165,306.767395 
	C407.980469,307.219696 408.329773,307.671967 408.924652,308.747925 
	C409.246490,309.049408 409.568329,309.350861 409.987579,310.284271 
	C414.574951,315.567169 419.162323,320.850067 424.002319,326.633209 
	C424.306519,326.842285 424.610718,327.051392 425.210388,327.845703 
	C427.090942,329.438416 428.971497,331.031128 431.307556,333.059662 
	C442.662994,341.776154 454.912262,348.716278 469.635681,352.391968 
	C480.869812,355.635864 492.296875,356.996002 504.659424,356.006348 
	C505.116791,355.963348 505.574127,355.920319 506.487183,355.972076 
	C506.487183,355.972076 506.940491,355.866425 507.805420,355.988800 
	C516.530212,353.979462 525.255005,351.970093 534.722656,349.900421 
	C542.472046,345.885071 550.221497,341.869720 558.641602,337.771759 
	C559.690125,336.974426 560.743347,336.183197 561.786438,335.378845 
	C570.787415,328.437958 579.252930,320.979248 585.846069,310.797455 
	C588.304749,306.823761 590.944885,302.949554 593.189270,298.858307 
	C600.989258,284.640106 605.034119,269.298584 605.632141,253.167145 
	C606.497070,229.832993 600.748596,208.246353 587.184326,188.312088 
	C586.674377,187.738968 586.164490,187.165863 585.624329,186.350235 
	C585.624329,186.350235 585.446228,186.182877 585.150818,185.656738 
	C577.564087,174.859802 568.252930,165.876251 556.635376,158.365891 
	C548.752625,154.602997 540.869934,150.840088 532.336853,146.733810 
	C527.869812,145.535660 523.402832,144.337509 518.169373,142.941132 
M617.003967,389.904724 
	C617.049622,410.606964 617.095276,431.309235 617.417603,452.814484 
	C619.839478,452.814484 622.261292,452.814484 624.733459,452.814484 
	C624.866455,452.124969 625.036194,451.654510 625.036560,451.183960 
	C625.052917,431.131561 625.068726,411.079102 625.012939,391.026855 
	C625.010254,390.064178 624.359985,389.103271 623.157227,388.003326 
	C621.430054,388.048523 619.702820,388.093689 617.467041,388.103882 
	C617.357788,388.393463 617.248535,388.683014 617.003967,389.904724 
M437.414368,452.815033 
	C439.836792,452.815033 442.259216,452.815033 444.731506,452.815033 
	C444.866089,452.125031 445.037140,451.656006 445.037537,451.186859 
	C445.054321,431.131256 445.070465,411.075592 445.014862,391.020142 
	C445.012207,390.058289 444.360046,389.098236 443.156372,387.999969 
	C441.429626,388.045624 439.702850,388.091278 437.466339,388.102631 
	C437.356689,388.392883 437.247070,388.683136 437.001495,389.905304 
	C437.047516,410.607117 437.093536,431.308929 437.414368,452.815033 
M647.257690,388.340576 
	C646.087830,395.449280 644.917908,402.558014 643.748047,409.666718 
	C641.989502,403.315155 641.096619,396.933167 640.000366,390.586365 
	C639.844788,389.685974 638.700378,388.956421 637.215881,388.005127 
	C636.139587,388.052643 635.063354,388.100159 633.176453,388.057587 
	C632.873352,389.122772 632.138306,390.277527 632.337463,391.238617 
	C633.611328,397.385956 634.927795,403.534149 636.546082,409.597778 
	C638.316711,416.232391 638.933411,422.670593 636.801025,429.447632 
	C634.429993,436.983124 632.824768,444.759552 630.797974,452.780212 
	C633.596741,452.780212 636.023132,452.780212 638.835510,452.780212 
	C640.277588,445.229858 641.728088,437.634979 643.813232,430.498810 
	C644.641052,434.990204 645.468872,439.481598 646.261475,444.771057 
	C646.842957,447.471893 647.424438,450.172760 647.996399,452.829346 
	C650.789490,452.829346 653.228210,452.829346 655.978149,452.829346 
	C653.818848,443.592712 651.885925,434.599213 649.571533,425.704987 
	C648.247375,420.616028 648.061951,415.771088 649.568054,410.669312 
	C651.483765,404.180298 652.962402,397.557129 654.427673,390.947052 
	C654.602661,390.157471 653.515259,389.088074 652.183960,388.005463 
	C650.785706,388.050690 649.387512,388.095917 647.257690,388.340576 
M545.808350,389.794983 
	C538.583679,385.236298 532.047119,386.432251 527.755310,393.706390 
	C527.219543,397.458130 526.683777,401.209869 526.005310,405.819885 
	C526.043274,407.557587 526.081238,409.295258 525.968018,411.955170 
	C525.968018,425.601074 525.968018,439.246979 525.968018,453.588898 
	C529.056152,452.971497 531.457642,452.491364 533.998169,451.083618 
	C533.977722,445.713837 533.957275,440.344086 534.746582,434.440308 
	C537.035156,434.440308 539.323792,434.440308 542.043335,434.440308 
	C542.043335,440.730743 542.043335,446.665924 542.043335,452.822296 
	C544.875427,452.822296 547.273438,452.822296 549.725647,452.822296 
	C549.725647,435.020020 549.903381,417.429810 549.562073,399.849670 
	C549.500488,396.676361 547.305542,393.544464 545.808350,389.794983 
M661.097412,468.005157 
	C553.213013,467.991516 445.328644,467.977448 337.444275,467.971130 
	C336.615265,467.971100 335.786224,468.076141 334.209412,468.053802 
	C329.187744,468.610474 327.011414,471.596283 327.013336,476.459900 
	C327.017944,488.237030 326.949280,500.014679 327.045227,511.791016 
	C327.089020,517.165588 329.251068,519.216858 335.888123,520.002380 
	C443.648224,520.013062 551.408325,520.025269 659.168396,520.017456 
	C660.480530,520.017395 661.792664,519.762207 663.861389,519.460754 
	C667.590515,518.248291 668.969971,515.453491 668.973938,511.779480 
	C668.986755,499.949890 669.010132,488.120178 668.963379,476.290771 
	C668.945251,471.694153 666.897583,468.683746 661.097412,468.005157 
z"/>
<path fill="#FFFFFF" opacity="1.000000" stroke="none" 
	d="
M2.500000,1.000000 
	C2.999659,216.026855 2.999318,431.053711 2.999480,646.540283 
	C2.333316,646.666687 1.216296,646.451965 1.090951,645.976074 
	C0.803575,644.885071 1.000000,643.666687 1.000000,642.500000 
	C1.000000,430.166656 0.997937,217.833328 1.041312,5.500009 
	C1.041619,3.999940 1.666667,2.500000 2.500000,1.000000 
z"/>
<path fill="#04A7E9" opacity="1.000000" stroke="none" 
	d="
M587.397522,188.880798 
	C600.748596,208.246353 606.497070,229.832993 605.632141,253.167145 
	C605.034119,269.298584 600.989258,284.640106 593.189270,298.858307 
	C590.944885,302.949554 588.304749,306.823761 585.210693,310.719727 
	C584.049866,308.470673 583.353088,306.324005 583.036621,304.122650 
	C582.481018,300.258118 582.158386,296.360107 581.821289,292.137329 
	C582.289734,290.893890 582.648071,289.976593 583.064575,289.086517 
	C591.002991,272.121399 594.366028,254.287567 590.937561,235.845825 
	C589.000244,225.424927 585.003967,215.386795 582.004028,204.751770 
	C582.381714,200.080048 582.487793,195.803711 583.091492,191.598801 
	C583.361328,189.719543 584.630554,187.983765 585.446228,186.182861 
	C585.446228,186.182877 585.624329,186.350235 585.527832,186.804474 
	C586.086670,187.799393 586.742065,188.340103 587.397522,188.880798 
z"/>
<path fill="#293D8F" opacity="1.000000" stroke="none" 
	d="
M407.412292,306.214447 
	C407.153839,306.111633 406.992706,305.924866 406.895325,305.117188 
	C406.439026,304.097290 406.016266,303.614288 405.593536,303.131256 
	C395.323364,286.811584 390.777161,268.800140 390.576843,249.729202 
	C390.355896,228.698181 395.832031,209.121246 407.679535,190.970520 
	C408.252441,190.317261 408.289703,189.972244 408.326996,189.627213 
	C408.326996,189.627213 408.358398,189.409805 408.789459,189.561249 
	C410.063293,191.559006 411.408203,193.342285 411.649323,195.264069 
	C412.236145,199.941269 412.310699,204.682739 412.574463,209.404266 
	C412.557281,209.410187 412.528748,209.432648 412.182556,209.463257 
	C411.746216,210.108765 411.656067,210.723694 411.471649,211.306625 
	C411.377411,211.274643 411.528961,211.403671 411.166382,211.453705 
	C410.602356,212.405594 410.400940,213.307465 410.181213,214.156723 
	C410.162903,214.104111 410.273865,214.114120 409.969086,214.269699 
	C409.626587,215.059677 409.588867,215.694092 409.335876,216.349274 
	C409.120667,216.370041 409.555420,216.350952 409.159851,216.459061 
	C408.589355,217.610397 408.414398,218.653625 408.266083,219.769531 
	C408.292725,219.842194 408.196442,219.963409 407.958496,220.082779 
	C407.743011,220.791626 407.765472,221.381119 407.706177,222.350891 
	C404.100098,235.642639 403.073944,248.729126 404.652039,262.239258 
	C404.789856,263.646454 405.147919,264.827942 405.668213,266.317627 
	C405.844086,267.087463 405.857666,267.549072 405.678131,268.187286 
	C405.713226,268.891388 405.941406,269.418915 406.378784,270.143921 
	C406.692261,270.896118 406.796509,271.450806 406.702759,272.178711 
	C406.724457,272.884247 406.944122,273.416565 407.373474,274.145050 
	C407.696686,274.894653 407.810211,275.448120 407.719849,276.181091 
	C407.813354,276.818604 408.110718,277.276550 408.381165,277.795044 
	C408.354187,277.855591 408.328400,277.725555 408.238281,278.126709 
	C409.206024,280.957092 410.263916,283.386383 411.327942,285.836975 
	C411.334076,285.858307 411.347137,285.808411 411.259369,286.200775 
	C411.108856,292.128601 411.233521,297.678040 410.823486,303.187653 
	C410.742554,304.275208 408.602661,305.209503 407.412292,306.214447 
z"/>
<path fill="#1A80C6" opacity="1.000000" stroke="none" 
	d="
M593.013794,422.073975 
	C593.013794,432.197937 593.013794,442.321838 593.013794,452.776184 
	C589.719482,452.776184 587.188293,452.776184 584.428467,452.776184 
	C584.428467,431.290436 584.428467,410.022736 584.428467,388.269867 
	C589.999939,388.269867 595.694214,387.574951 601.076233,388.569336 
	C603.682800,389.050964 607.041870,392.349609 607.735229,394.984650 
	C609.693298,402.426178 609.672363,410.134125 606.031311,417.553833 
	C605.073059,418.351990 604.621094,419.082855 604.169189,419.813721 
	C604.825256,420.182129 605.481262,420.550537 606.137329,420.918945 
	C606.137329,420.918945 606.052185,420.961426 606.037109,421.364502 
	C606.896545,430.646454 607.835022,439.520111 608.564758,448.410858 
	C608.656372,449.527771 607.648499,450.734924 607.150085,451.900269 
	C606.040283,451.193542 604.462341,450.731354 603.934448,449.720673 
	C603.210205,448.334076 603.113586,446.538361 603.048584,444.905975 
	C602.922974,441.747437 603.602234,438.432678 602.861450,435.452698 
	C601.822693,431.274323 603.780701,426.002289 598.859009,423.078979 
	C598.859009,423.078979 598.942017,423.065521 598.889221,422.729553 
	C596.895569,422.287048 594.954651,422.180511 593.013794,422.073975 
M592.633789,409.374573 
	C592.633789,411.309692 592.633789,413.244843 592.633789,415.081177 
	C599.208313,416.053162 600.563782,415.121643 600.909729,409.545502 
	C601.094116,406.573334 601.079651,403.576996 600.954895,400.599945 
	C600.716125,394.902466 598.777039,393.717651 592.633362,395.627045 
	C592.633362,399.818970 592.633362,404.112396 592.633789,409.374573 
z"/>
<path fill="#137DC5" opacity="1.000000" stroke="none" 
	d="
M512.003845,388.112305 
	C513.070129,388.074097 514.136353,388.035919 515.603516,388.516785 
	C516.005127,408.476959 516.058167,427.918457 515.905762,447.358337 
	C515.893799,448.889984 514.618103,451.587555 513.645203,451.724762 
	C510.124237,452.221252 511.053436,449.146088 511.029388,447.211792 
	C510.938446,439.901733 511.043243,432.589233 510.952393,425.279175 
	C510.932892,423.706696 510.402863,422.140564 510.108002,420.571503 
	C509.533752,420.574158 508.959503,420.576782 508.385254,420.579437 
	C506.399231,431.035217 504.413208,441.490967 502.427185,451.946747 
	C501.881256,451.959412 501.335358,451.972076 500.789429,451.984741 
	C500.192230,449.740417 499.486572,447.518433 499.018219,445.247528 
	C497.628265,438.508301 496.331787,431.749756 494.988770,424.620667 
	C494.405853,423.612976 493.832916,422.983429 493.259949,422.353882 
	C492.839752,423.320496 492.068207,424.282379 492.055115,425.254486 
	C491.952332,432.888275 492.115234,440.527832 491.874756,448.155487 
	C491.834320,449.438477 490.243530,450.672577 489.369049,451.929230 
	C488.580444,450.752258 487.602997,449.653778 487.069824,448.370667 
	C486.716675,447.520935 486.999115,446.406555 486.998901,445.410675 
	C486.994812,426.322784 486.991028,407.234894 486.987183,388.147003 
	C488.062988,388.098541 489.138763,388.050049 490.618958,388.464600 
	C493.669159,401.287109 496.285278,413.653107 499.013916,425.994232 
	C499.246368,427.045593 500.228882,427.931152 500.927582,428.953308 
	C500.992218,429.012909 501.124756,429.128510 501.181946,429.263611 
	C501.239136,429.398712 501.618256,429.475067 501.618256,429.475067 
	C501.618256,429.475067 501.860687,429.138580 502.191345,428.936035 
	C503.018433,427.571289 503.714233,426.452881 503.980438,425.240143 
	C506.694977,412.872986 509.339661,400.490509 512.003845,388.112305 
z"/>
<path fill="#617CFF" opacity="1.000000" stroke="none" 
	d="
M663.104797,519.626160 
	C661.792664,519.762207 660.480530,520.017395 659.168396,520.017456 
	C551.408325,520.025269 443.648224,520.013062 335.300720,519.664062 
	C334.470367,518.584656 334.227448,517.843689 334.451416,517.047485 
	C444.277527,516.988953 553.636719,516.985535 663.000916,517.422485 
	C663.038879,518.450623 663.071838,519.038391 663.104797,519.626160 
z"/>
<path fill="#617CFF" opacity="1.000000" stroke="none" 
	d="
M334.957214,468.132080 
	C335.786224,468.076141 336.615265,467.971100 337.444275,467.971130 
	C445.328644,467.977448 553.213013,467.991516 661.553955,468.424744 
	C662.012085,469.528961 662.013672,470.213654 661.548096,470.951202 
	C552.878845,471.014709 444.676727,471.025604 336.474640,471.030243 
	C335.644592,471.030273 334.814545,470.944061 334.020721,470.603821 
	C334.357025,469.583740 334.657135,468.857910 334.957214,468.132080 
z"/>
<path fill="#1A80C6" opacity="1.000000" stroke="none" 
	d="
M386.035461,445.914795 
	C387.012695,443.424469 388.779541,440.952332 388.837341,438.440826 
	C389.178375,423.627777 389.122742,408.805603 389.197815,393.986481 
	C389.206970,392.180664 389.199066,390.374817 389.199066,388.273560 
	C391.974335,388.273560 394.389923,388.273560 397.092010,388.273560 
	C397.234894,388.719421 397.592529,389.308624 397.586823,389.894287 
	C397.420685,406.871368 397.472168,423.856232 396.925842,440.821747 
	C396.600891,450.912720 390.763306,455.628357 382.327057,453.714172 
	C376.970551,452.498779 374.882874,448.644989 374.388824,443.001709 
	C374.784637,424.247864 374.883667,406.192810 374.982727,388.137726 
	C376.383392,388.088379 377.784088,388.039001 379.588226,388.520081 
	C379.991272,405.141571 379.902252,421.233704 380.093506,437.322479 
	C380.119781,439.533142 381.538666,441.727295 382.312805,443.929077 
	C382.636169,443.963806 382.848572,444.135651 383.116516,444.901886 
	C383.592896,445.546692 383.902802,445.734253 384.212708,445.921844 
	C384.212708,445.921844 384.034576,445.888641 384.160370,446.073395 
	C384.869263,446.143677 385.452332,446.029236 386.035461,445.914795 
z"/>
<path fill="#137DC5" opacity="1.000000" stroke="none" 
	d="
M533.936829,434.974304 
	C533.957275,440.344086 533.977722,445.713837 533.493286,451.540466 
	C528.249512,452.786957 526.710693,450.888611 526.895996,446.059662 
	C527.264099,436.468567 527.055725,426.852905 526.964661,417.248535 
	C526.945007,415.174194 526.414490,413.104706 526.119263,411.032959 
	C526.081238,409.295258 526.043274,407.557587 526.392883,405.186646 
	C527.225281,400.713013 527.670166,396.872589 528.115051,393.032166 
	C532.047119,386.432251 538.583679,385.236298 545.958374,390.526367 
	C546.724792,393.496490 547.817688,395.721649 547.881775,397.976074 
	C548.363647,414.921417 548.683716,431.872070 548.884216,448.823029 
	C548.896362,449.848022 547.451721,450.890228 546.684937,451.924438 
	C545.792297,450.848877 544.228760,449.831329 544.129761,448.687073 
	C543.800659,444.884003 544.234802,441.012817 543.872864,437.215698 
	C543.735229,435.771545 542.112122,433.234924 541.373169,433.307434 
	C538.895203,433.550537 535.518188,430.852448 533.936829,434.974304 
M534.022156,409.542297 
	C534.022156,415.620636 534.022156,421.698975 534.022156,427.635132 
	C537.062622,427.635132 539.331238,427.635132 541.995850,427.635132 
	C541.995850,423.089661 542.067871,418.798615 541.977966,414.510956 
	C541.859619,408.870056 541.812439,403.212769 541.274597,397.606659 
	C541.149841,396.306091 539.164978,395.183990 538.036011,393.979797 
	C536.941467,395.198608 535.140991,396.288300 534.889709,397.661407 
	C534.237061,401.228027 534.265381,404.919281 534.022156,409.542297 
z"/>
<path fill="#137DC5" opacity="1.000000" stroke="none" 
	d="
M357.298828,435.961182 
	C357.231110,435.695435 357.163422,435.429688 356.888947,434.461792 
	C353.946991,433.096863 351.025513,431.290527 349.004181,435.010376 
	C349.004181,435.010376 348.998779,435.001221 348.711792,435.299927 
	C348.281586,438.719147 348.043152,441.838776 348.014496,444.960358 
	C347.950226,451.960907 347.992676,451.961304 341.139648,452.010803 
	C341.093933,439.972137 341.048218,427.933472 341.398743,415.216675 
	C342.278046,407.381134 342.761108,400.223724 343.244171,393.066315 
	C347.369415,386.234467 355.224976,385.086487 361.579834,390.887878 
	C362.095276,392.224762 362.691559,393.048737 363.287842,393.872742 
	C363.287842,393.872742 363.176300,393.920502 363.117554,394.320862 
	C363.042633,395.885590 362.992859,397.050537 363.015320,398.214142 
	C363.335785,414.812836 363.723328,431.410858 363.882935,448.011047 
	C363.895447,449.312958 362.334473,450.629974 361.504791,451.939972 
	C360.670776,450.633911 359.236694,449.380066 359.117584,448.011780 
	C358.786926,444.213562 359.030060,440.366974 358.931061,436.542511 
	C358.925690,436.334778 357.867126,436.154327 357.298828,435.961182 
M350.126312,427.910706 
	C352.359741,427.910706 354.593140,427.910706 356.880798,427.910706 
	C356.880798,417.963867 357.028687,408.716919 356.755157,399.482513 
	C356.700928,397.651825 355.225708,395.700867 353.941986,394.202820 
	C353.677826,393.894592 351.343994,395.359955 349.286011,396.411255 
	C348.866547,397.277130 348.091003,398.139496 348.082489,399.009399 
	C347.994995,407.980560 348.005188,416.953186 348.086151,425.924500 
	C348.092285,426.602661 348.847534,427.274048 350.126312,427.910706 
z"/>
<path fill="#137DC5" opacity="1.000000" stroke="none" 
	d="
M475.154541,447.425232 
	C475.154541,447.425232 475.189819,447.735565 474.894196,448.028320 
	C474.577850,448.654755 474.557129,448.988373 474.536377,449.322021 
	C474.536377,449.322021 474.489349,449.398651 474.091553,449.410950 
	C468.751190,453.362946 463.140564,451.852020 457.658356,451.388580 
	C457.658356,451.388580 457.939514,450.990692 457.801971,450.899353 
	C457.424072,450.522003 457.183746,450.235962 456.819275,449.731995 
	C456.396271,449.372070 456.097382,449.230133 455.798462,449.088165 
	C455.798462,449.088165 455.894867,449.071228 455.923279,448.685913 
	C455.302643,435.817596 454.212463,423.335571 454.183685,410.851105 
	C454.168457,404.239136 455.998260,397.622864 457.262390,390.873993 
	C458.002777,390.121460 458.475891,389.503479 458.948975,388.885468 
	C458.948975,388.885468 458.969635,388.972778 459.398621,388.970703 
	C464.257599,389.283020 468.687531,389.597382 473.117493,389.911743 
	C473.117493,389.911743 473.017944,389.980469 473.037964,390.329346 
	C474.041077,397.164276 475.731384,403.636780 475.855774,410.139221 
	C476.093353,422.558868 475.438812,434.995605 475.154541,447.425232 
M468.859192,395.440826 
	C468.371887,394.975800 467.884552,394.510803 466.635986,394.070312 
	C462.373535,393.124512 461.188446,395.955994 461.152710,399.146881 
	C460.998657,412.898102 460.979645,426.654022 461.223419,440.402679 
	C461.254364,442.148499 462.769684,444.476715 464.281525,445.348114 
	C465.122864,445.833008 467.377625,443.865601 469.594849,442.514954 
	C470.063629,440.804016 470.921478,439.096985 470.938629,437.381531 
	C471.057465,425.497345 471.097931,413.609802 470.903259,401.727631 
	C470.871979,399.820435 469.539246,397.934540 468.926483,396.047821 
	C468.926483,396.047821 468.896393,396.162628 468.859192,395.440826 
z"/>
<path fill="#137DC5" opacity="1.000000" stroke="none" 
	d="
M407.004364,388.112152 
	C410.040070,388.073547 413.075745,388.034973 416.756287,388.355743 
	C424.485535,389.994751 428.124847,394.649200 427.869568,401.428650 
	C427.256866,417.699707 430.512665,434.201996 425.215698,450.213928 
	C425.215698,450.213928 425.003662,450.004883 424.700439,450.090271 
	C420.337372,450.786163 416.276306,451.388641 412.218048,452.009491 
	C408.078430,452.642761 406.865845,450.890015 406.907410,446.767181 
	C407.104523,427.217163 407.000885,407.664124 407.004364,388.112152 
M419.973633,395.022583 
	C419.973633,395.022583 419.979706,395.136383 419.600159,394.584839 
	C419.194122,394.410889 418.788086,394.236908 417.775024,394.395905 
	C416.239594,394.568390 414.704132,394.740875 412.531403,395.492371 
	C412.359558,396.120819 412.039124,396.748932 412.037659,397.377808 
	C412.003784,412.102814 411.972992,426.828064 412.060394,441.552582 
	C412.067078,442.681610 412.952393,443.805420 414.201233,444.942078 
	C416.459839,444.292816 418.718445,443.643555 421.485687,442.606842 
	C421.565186,441.994293 421.644653,441.381744 421.749725,440.913055 
	C421.749725,440.913055 421.607117,440.881104 422.325165,440.520172 
	C422.259094,438.025146 422.193024,435.530121 422.012024,432.099609 
	C422.050446,423.721191 422.088898,415.342743 422.643097,406.358643 
	C422.602875,402.823303 424.794952,398.887878 420.935699,396.038086 
	C420.935699,396.038086 420.942383,396.178040 420.727539,395.674805 
	C420.438568,395.462219 420.149567,395.249634 419.973633,395.022583 
z"/>
<path fill="#2056A5" opacity="1.000000" stroke="none" 
	d="
M468.990845,352.020966 
	C454.912262,348.716278 442.662994,341.776154 431.126678,332.376617 
	C431.296448,326.451080 431.647095,321.208588 432.315186,316.083740 
	C438.436401,320.762970 444.240143,325.324585 450.109436,330.261322 
	C451.263153,331.034180 452.351288,331.431915 453.595703,331.827637 
	C453.751953,331.825653 453.997833,332.018616 454.026031,332.260620 
	C454.425629,332.529541 454.797058,332.556488 455.388000,332.665710 
	C455.607544,332.748016 455.989410,333.020233 456.057312,333.361755 
	C458.665741,335.156403 461.074005,336.951813 463.773010,337.994720 
	C470.375305,340.545776 470.868408,341.087128 469.924103,348.156036 
	C469.749542,349.462616 469.308777,350.733582 468.990845,352.020966 
z"/>
<path fill="#137DC5" opacity="1.000000" stroke="none" 
	d="
M646.296692,443.972992 
	C645.468872,439.481598 644.641052,434.990204 643.142212,430.420258 
	C641.980713,431.335480 641.248779,432.281342 641.040527,433.331116 
	C640.013062,438.509613 639.299866,443.758240 638.056885,448.880463 
	C637.764282,450.086273 635.850037,450.898529 634.681763,451.891846 
	C634.312805,450.529053 633.395203,449.044678 633.665894,447.823669 
	C635.170288,441.036835 637.251526,434.368652 638.546448,427.548096 
	C639.294617,423.607605 639.524109,419.371185 638.952881,415.417389 
	C637.632385,406.279083 635.682007,397.231842 633.987061,388.147644 
	C635.063354,388.100159 636.139587,388.052643 637.670593,388.469727 
	C639.392822,396.578613 640.660278,404.222870 641.927795,411.867157 
	C642.714722,411.850891 643.501648,411.834595 644.288574,411.818329 
	C646.809692,404.187531 647.533630,396.191589 647.989258,388.141113 
	C649.387512,388.095917 650.785706,388.050690 652.592041,388.497620 
	C652.469299,392.072754 652.364685,395.306763 651.334595,398.212769 
	C646.577209,411.634644 646.224182,424.959900 650.979309,438.481537 
	C652.422791,442.586212 652.947876,447.013855 653.894592,451.297729 
	C649.158203,453.157928 648.858032,449.986359 648.025574,447.303802 
	C647.660706,446.127930 646.885559,445.079376 646.296692,443.972992 
z"/>
<path fill="#0899DE" opacity="1.000000" stroke="none" 
	d="
M585.298523,185.919800 
	C584.630554,187.983765 583.361328,189.719543 583.091492,191.598801 
	C582.487793,195.803711 582.381714,200.080048 581.703064,204.570740 
	C574.941284,192.279953 565.639099,182.185944 555.066223,172.895844 
	C555.826904,167.968765 556.425232,163.439331 557.023560,158.909912 
	C568.252930,165.876251 577.564087,174.859802 585.298523,185.919800 
z"/>
<path fill="#0899DE" opacity="1.000000" stroke="none" 
	d="
M581.738159,292.476105 
	C582.158386,296.360107 582.481018,300.258118 583.036621,304.122650 
	C583.353088,306.324005 584.049866,308.470673 584.900635,310.877563 
	C579.252930,320.979248 570.787415,328.437958 561.786438,335.378845 
	C560.743347,336.183197 559.690125,336.974426 558.056885,337.530334 
	C556.632385,332.821320 555.792664,328.353699 555.105713,323.589478 
	C556.687134,322.189972 558.160461,321.139832 559.537415,319.975647 
	C568.696106,312.232178 575.681458,302.727478 581.738159,292.476105 
z"/>
<path fill="#244698" opacity="1.000000" stroke="none" 
	d="
M412.591644,209.398331 
	C412.310699,204.682739 412.236145,199.941269 411.649323,195.264069 
	C411.408203,193.342285 410.063293,191.559006 408.864441,189.480988 
	C415.616364,179.029358 423.295868,169.365494 434.585144,163.279724 
	C435.636078,168.117416 436.304810,172.517456 436.774780,177.185974 
	C426.464600,186.513153 418.154480,196.924362 412.591644,209.398331 
z"/>
<path fill="#244698" opacity="1.000000" stroke="none" 
	d="
M431.997711,315.966095 
	C431.647095,321.208588 431.296448,326.451080 430.898926,332.158691 
	C428.971497,331.031128 427.090942,329.438416 424.953613,327.287476 
	C424.381134,326.530487 424.065399,326.331726 423.749664,326.132965 
	C419.162323,320.850067 414.574951,315.567169 409.850464,309.631409 
	C409.368591,308.693787 409.023834,308.409027 408.679077,308.124268 
	C408.329773,307.671967 407.980469,307.219696 407.521729,306.490906 
	C408.602661,305.209503 410.742554,304.275208 410.823486,303.187653 
	C411.233521,297.678040 411.108856,292.128601 411.514709,286.428833 
	C416.634186,297.478455 423.788330,307.080048 431.997711,315.966095 
z"/>
<path fill="#137DC5" opacity="1.000000" stroke="none" 
	d="
M437.976105,388.136963 
	C439.702850,388.091278 441.429626,388.045624 443.576599,388.528198 
	C443.996246,407.671600 443.996246,426.286835 443.994873,444.902039 
	C443.994354,451.960999 443.992950,451.960999 437.139557,452.010742 
	C437.093536,431.308929 437.047516,410.607117 437.252686,389.348450 
	C437.732208,388.624542 437.889618,388.406342 437.976105,388.136963 
z"/>
<path fill="#137DC5" opacity="1.000000" stroke="none" 
	d="
M617.975647,388.138855 
	C619.702820,388.093689 621.430054,388.048523 623.577393,388.531677 
	C623.996826,407.674011 623.996399,426.287933 623.994873,444.901886 
	C623.994263,451.960785 623.993042,451.960785 617.140869,452.011475 
	C617.095276,431.309235 617.049622,410.606964 617.254272,389.348083 
	C617.732300,388.624939 617.889343,388.407410 617.975647,388.138855 
z"/>
<path fill="#137DC5" opacity="1.000000" stroke="none" 
	d="
M556.987061,388.147156 
	C563.685730,388.098541 570.384399,388.049927 577.540894,388.494568 
	C577.868042,390.564606 577.737366,392.141357 577.616760,393.596649 
	C569.997559,394.443085 569.995972,394.443085 569.995422,401.786102 
	C569.994324,416.606384 569.998169,431.426666 569.989990,446.246948 
	C569.989258,447.576447 570.222778,449.025116 569.768738,450.193512 
	C569.464966,450.975250 568.170654,451.711731 567.254517,451.800995 
	C566.601807,451.864594 565.428833,450.941040 565.219116,450.239471 
	C564.850952,449.007660 565.006653,447.608429 565.005920,446.279266 
	C564.997253,430.626404 565.036438,414.973267 564.925842,399.321167 
	C564.917725,398.175629 563.848572,397.037537 563.272766,395.895996 
	C563.272766,395.895996 563.058716,395.647125 562.874634,395.201385 
	C560.880432,394.257721 559.070374,393.759796 556.987061,393.186707 
	C556.987061,391.399078 556.987061,389.773132 556.987061,388.147156 
z"/>
<path fill="#1A68B3" opacity="1.000000" stroke="none" 
	d="
M476.998383,143.174408 
	C478.233002,142.984314 479.467651,142.794205 481.352295,142.708389 
	C482.327484,142.601303 482.652710,142.389938 482.977905,142.178558 
	C486.369659,141.833282 489.761414,141.488022 493.459106,141.558182 
	C489.084106,143.355972 489.717957,147.144653 490.094788,150.577240 
	C490.535339,154.589783 493.911957,152.355560 495.943268,153.019089 
	C496.961243,153.351624 497.931824,153.829147 498.541931,154.336105 
	C495.766083,154.551880 493.372223,154.672668 490.771271,154.590042 
	C489.712555,154.548859 488.860901,154.711075 487.626892,154.968933 
	C477.826263,157.691422 468.407928,160.318253 459.076355,162.576691 
	C459.775757,160.287125 460.709198,158.401093 460.924438,156.436386 
	C461.232300,153.626511 461.014893,150.759125 461.021820,147.916290 
	C462.979828,147.448959 464.937836,146.981644 467.511902,146.257202 
	C471.084778,145.058182 474.041565,144.116287 476.998383,143.174408 
z"/>
<path fill="#0E8CD2" opacity="1.000000" stroke="none" 
	d="
M556.829468,158.637909 
	C556.425232,163.439331 555.826904,167.968765 554.716553,172.813599 
	C545.738647,168.607681 537.272827,164.086380 528.889099,159.125549 
	C529.314087,156.605865 529.398254,154.436813 530.073792,152.470963 
	C530.728882,150.564453 531.991455,148.866653 532.987183,147.077179 
	C540.869934,150.840088 548.752625,154.602997 556.829468,158.637909 
z"/>
<path fill="#2056A5" opacity="1.000000" stroke="none" 
	d="
M460.646423,147.950745 
	C461.014893,150.759125 461.232300,153.626511 460.924438,156.436386 
	C460.709198,158.401093 459.775757,160.287125 458.920959,162.662430 
	C458.678802,163.116562 458.323730,163.125320 458.058655,163.178223 
	C457.529816,163.468857 457.266022,163.706604 456.785889,164.048096 
	C456.569519,164.151840 456.098145,164.241684 455.983704,164.058807 
	C455.579559,164.206665 455.289825,164.537399 454.692627,165.034058 
	C448.581268,169.105835 442.777405,173.011688 436.973541,176.917511 
	C436.304810,172.517456 435.636078,168.117416 434.947906,163.244385 
	C439.595093,159.494492 444.104095,155.954910 448.981262,153.028915 
	C452.490204,150.923767 456.490143,149.637039 460.646423,147.950745 
z"/>
<path fill="#137DC5" opacity="1.000000" stroke="none" 
	d="
M533.979797,349.960754 
	C525.255005,351.970093 516.530212,353.979462 507.288849,355.788757 
	C506.444550,355.403748 506.197601,355.499939 506.031494,355.877289 
	C505.574127,355.920319 505.116791,355.963348 504.100494,355.716644 
	C502.698639,355.275879 501.855743,355.124817 501.063019,354.581848 
	C501.079681,350.802582 501.046112,347.415222 501.434418,344.022247 
	C504.221252,343.472900 506.586243,342.929169 509.349701,342.243164 
	C516.373474,340.606964 522.998779,339.112976 529.727173,338.091064 
	C529.886902,340.202942 530.185364,341.878387 529.950012,343.475128 
	C529.447754,346.882507 530.729614,348.983032 533.979797,349.960754 
z"/>
<path fill="#0E8CD2" opacity="1.000000" stroke="none" 
	d="
M534.351196,349.930603 
	C530.729614,348.983032 529.447754,346.882507 529.950012,343.475128 
	C530.185364,341.878387 529.886902,340.202942 529.770020,338.096985 
	C529.709717,337.630798 529.756836,337.702698 530.125793,337.791534 
	C531.271973,337.459747 532.049194,337.039124 532.826660,336.685364 
	C532.826904,336.752228 532.713013,336.682129 533.024170,336.753296 
	C533.882080,336.328156 534.428772,335.831848 535.312988,335.176941 
	C542.084595,331.307587 548.518799,327.596832 554.952942,323.886108 
	C555.792664,328.353699 556.632385,332.821320 557.721558,337.571655 
	C550.221497,341.869720 542.472046,345.885071 534.351196,349.930603 
z"/>
<path fill="#1A80C6" opacity="1.000000" stroke="none" 
	d="
M494.998779,424.998779 
	C496.331787,431.749756 497.628265,438.508301 499.018219,445.247528 
	C499.486572,447.518433 500.192230,449.740417 500.789429,451.984741 
	C501.335358,451.972076 501.881256,451.959412 502.427185,451.946747 
	C504.413208,441.490967 506.399231,431.035217 508.385254,420.579437 
	C508.959503,420.576782 509.533752,420.574158 510.108002,420.571503 
	C510.402863,422.140564 510.932892,423.706696 510.952393,425.279175 
	C511.043243,432.589233 510.938446,439.901733 511.029388,447.211792 
	C511.053436,449.146088 510.124237,452.221252 513.645203,451.724762 
	C514.618103,451.587555 515.893799,448.889984 515.905762,447.358337 
	C516.058167,427.918457 516.005127,408.476959 516.000000,388.574738 
	C516.640808,388.927612 517.845459,389.738800 517.849548,390.556030 
	C517.953552,411.168091 517.931335,431.780792 517.931335,452.752991 
	C515.118103,452.752991 512.552429,452.752991 509.471680,452.752991 
	C509.471680,444.715271 509.471680,436.630402 509.471680,428.545502 
	C509.097351,428.505219 508.723022,428.464905 508.348694,428.424591 
	C506.851990,436.524109 505.355286,444.623596 503.818573,452.939514 
	C502.351990,453.012421 501.055664,453.076843 499.704407,453.144012 
	C499.384399,452.691345 498.952301,452.344055 498.873840,451.929779 
	C497.547089,444.925232 496.286102,437.908051 494.905518,430.914398 
	C494.838531,430.574921 493.806702,430.425873 493.062805,430.195099 
	C492.913239,429.199188 492.925018,428.196381 493.310120,427.179779 
	C493.828735,426.438568 493.973969,425.711121 494.339172,424.985168 
	C494.559113,424.986633 494.998779,424.998779 494.998779,424.998779 
z"/>
<path fill="#1870BA" opacity="1.000000" stroke="none" 
	d="
M498.923859,154.241104 
	C497.931824,153.829147 496.961243,153.351624 495.943268,153.019089 
	C493.911957,152.355560 490.535339,154.589783 490.094788,150.577240 
	C489.717957,147.144653 489.084106,143.355972 493.868469,141.631500 
	C502.037720,141.839966 510.103546,142.390549 518.271973,143.286255 
	C515.807312,143.752747 513.240051,143.874100 510.725159,143.992996 
	C508.879364,152.105835 509.155609,152.581741 516.681763,155.150208 
	C517.207947,155.329788 517.556335,156.030716 517.603394,156.402054 
	C511.120850,155.623627 505.022369,154.932358 498.923859,154.241104 
z"/>
<path fill="#1A68B3" opacity="1.000000" stroke="none" 
	d="
M501.012817,354.973755 
	C501.855743,355.124817 502.698639,355.275879 503.758057,355.668091 
	C492.296875,356.996002 480.869812,355.635864 469.313293,352.206482 
	C469.308777,350.733582 469.749542,349.462616 469.924103,348.156036 
	C470.868408,341.087128 470.375305,340.545776 463.773010,337.994720 
	C461.074005,336.951813 458.665741,335.156403 456.422546,333.389343 
	C473.192413,341.440582 490.715363,343.912720 508.951202,342.385406 
	C506.586243,342.929169 504.221252,343.472900 500.966339,344.011932 
	C494.966217,343.720551 489.855469,343.256805 484.746368,343.274384 
	C483.502289,343.278687 481.118927,345.043976 481.220551,345.691956 
	C481.662598,348.510468 478.578003,353.043121 483.717224,353.846161 
	C489.402344,354.734497 495.241028,354.640137 501.012817,354.973755 
z"/>
<path fill="#0370C2" opacity="1.000000" stroke="none" 
	d="
M563.216858,396.368286 
	C563.848572,397.037537 564.917725,398.175629 564.925842,399.321167 
	C565.036438,414.973267 564.997253,430.626404 565.005920,446.279266 
	C565.006653,447.608429 564.850952,449.007660 565.219116,450.239471 
	C565.428833,450.941040 566.601807,451.864594 567.254517,451.800995 
	C568.170654,451.711731 569.464966,450.975250 569.768738,450.193512 
	C570.222778,449.025116 569.989258,447.576447 569.989990,446.246948 
	C569.998169,431.426666 569.994324,416.606384 569.995422,401.786102 
	C569.995972,394.443085 569.997559,394.443085 577.616760,393.596649 
	C577.737366,392.141357 577.868042,390.564606 578.005554,388.565125 
	C578.711853,390.184174 579.411438,392.225983 580.287598,394.783234 
	C578.009705,394.974915 576.746155,395.084259 575.482117,395.186707 
	C574.335754,395.279633 573.188904,395.365021 571.565430,395.490631 
	C571.565430,414.525818 571.565430,433.449982 571.565430,452.715454 
	C568.548096,452.715454 566.004395,452.715454 563.160950,452.715454 
	C563.160950,434.103577 563.160950,415.472046 563.216858,396.368286 
z"/>
<path fill="#137DC5" opacity="1.000000" stroke="none" 
	d="
M517.987366,156.489227 
	C517.556335,156.030716 517.207947,155.329788 516.681763,155.150208 
	C509.155609,152.581741 508.879364,152.105835 510.725159,143.992996 
	C513.240051,143.874100 515.807312,143.752747 518.655151,143.385376 
	C523.402832,144.337509 527.869812,145.535660 532.661987,146.905487 
	C531.991455,148.866653 530.728882,150.564453 530.073792,152.470963 
	C529.398254,154.436813 529.314087,156.605865 528.512573,158.989929 
	C524.698364,158.358994 521.342896,157.424118 517.987366,156.489227 
z"/>
<path fill="#4C6EFF" opacity="1.000000" stroke="none" 
	d="
M334.583313,468.092957 
	C334.657135,468.857910 334.357025,469.583740 333.667847,470.727295 
	C332.181152,473.165314 330.192230,475.160461 330.134460,477.210083 
	C329.821350,488.314972 330.050476,499.433960 329.944611,510.546661 
	C329.914307,513.729065 330.789886,516.053040 333.984497,517.102661 
	C334.227448,517.843689 334.470367,518.584656 334.833435,519.596375 
	C329.251068,519.216858 327.089020,517.165588 327.045227,511.791016 
	C326.949280,500.014679 327.017944,488.237030 327.013336,476.459900 
	C327.011414,471.596283 329.187744,468.610474 334.583313,468.092957 
z"/>
<path fill="#0370C2" opacity="1.000000" stroke="none" 
	d="
M494.988770,424.620667 
	C494.998779,424.998779 494.559113,424.986633 494.219421,424.716370 
	C493.842316,424.286255 493.847382,424.090729 493.753174,423.978638 
	C493.686432,423.899200 493.362335,423.915192 493.361938,423.917969 
	C493.208344,425.008179 493.072693,426.100861 492.936798,427.193542 
	C492.925018,428.196381 492.913239,429.199188 492.940796,430.576019 
	C492.980133,438.070648 492.980133,445.191284 492.980133,452.686371 
	C490.578613,452.686371 488.179352,452.686371 485.470184,452.686371 
	C485.362488,452.182800 485.058472,451.421631 485.057404,450.659973 
	C485.029083,430.918182 485.014374,411.176270 485.076782,391.434662 
	C485.080292,390.315948 485.760712,389.199432 486.556641,388.114441 
	C486.991028,407.234894 486.994812,426.322784 486.998901,445.410675 
	C486.999115,446.406555 486.716675,447.520935 487.069824,448.370667 
	C487.602997,449.653778 488.580444,450.752258 489.369049,451.929230 
	C490.243530,450.672577 491.834320,449.438477 491.874756,448.155487 
	C492.115234,440.527832 491.952332,432.888275 492.055115,425.254486 
	C492.068207,424.282379 492.839752,423.320496 493.259949,422.353882 
	C493.832916,422.983429 494.405853,423.612976 494.988770,424.620667 
z"/>
<path fill="#4C6EFF" opacity="1.000000" stroke="none" 
	d="
M662.015259,470.898315 
	C662.013672,470.213654 662.012085,469.528961 662.016846,468.502075 
	C666.897583,468.683746 668.945251,471.694153 668.963379,476.290771 
	C669.010132,488.120178 668.986755,499.949890 668.973938,511.779480 
	C668.969971,515.453491 667.590515,518.248291 663.483093,519.543457 
	C663.071838,519.038391 663.038879,518.450623 663.290771,517.190796 
	C664.390442,514.645691 665.873657,512.785583 665.910583,510.897247 
	C666.131714,499.582703 666.217468,488.255066 665.839355,476.948853 
	C665.770569,474.891663 663.350159,472.913147 662.015259,470.898315 
z"/>
<path fill="#0370C2" opacity="1.000000" stroke="none" 
	d="
M633.581787,388.102600 
	C635.682007,397.231842 637.632385,406.279083 638.952881,415.417389 
	C639.524109,419.371185 639.294617,423.607605 638.546448,427.548096 
	C637.251526,434.368652 635.170288,441.036835 633.665894,447.823669 
	C633.395203,449.044678 634.312805,450.529053 634.681763,451.891846 
	C635.850037,450.898529 637.764282,450.086273 638.056885,448.880463 
	C639.299866,443.758240 640.013062,438.509613 641.040527,433.331116 
	C641.248779,432.281342 641.980713,431.335480 642.824951,430.190918 
	C641.728088,437.634979 640.277588,445.229858 638.835510,452.780212 
	C636.023132,452.780212 633.596741,452.780212 630.797974,452.780212 
	C632.824768,444.759552 634.429993,436.983124 636.801025,429.447632 
	C638.933411,422.670593 638.316711,416.232391 636.546082,409.597778 
	C634.927795,403.534149 633.611328,397.385956 632.337463,391.238617 
	C632.138306,390.277527 632.873352,389.122772 633.581787,388.102600 
z"/>
<path fill="#1A80C6" opacity="1.000000" stroke="none" 
	d="
M406.572296,388.079498 
	C407.000885,407.664124 407.104523,427.217163 406.907410,446.767181 
	C406.865845,450.890015 408.078430,452.642761 412.218048,452.009491 
	C416.276306,451.388641 420.337372,450.786163 424.805725,450.193909 
	C422.544464,451.162079 419.935852,452.597168 417.189880,452.943604 
	C413.438019,453.416962 409.581665,453.061798 405.541412,453.061798 
	C405.372620,452.198395 405.092804,451.431854 405.091797,450.664948 
	C405.066101,430.913910 405.051971,411.162811 405.113647,391.411957 
	C405.117157,390.289185 405.782776,389.168488 406.572296,388.079498 
z"/>
<path fill="#0370C2" opacity="1.000000" stroke="none" 
	d="
M646.279053,444.372009 
	C646.885559,445.079376 647.660706,446.127930 648.025574,447.303802 
	C648.858032,449.986359 649.158203,453.157928 653.894592,451.297729 
	C652.947876,447.013855 652.422791,442.586212 650.979309,438.481537 
	C646.224182,424.959900 646.577209,411.634644 651.334595,398.212769 
	C652.364685,395.306763 652.469299,392.072754 653.006592,388.569092 
	C653.515259,389.088074 654.602661,390.157471 654.427673,390.947052 
	C652.962402,397.557129 651.483765,404.180298 649.568054,410.669312 
	C648.061951,415.771088 648.247375,420.616028 649.571533,425.704987 
	C651.885925,434.599213 653.818848,443.592712 655.978149,452.829346 
	C653.228210,452.829346 650.789490,452.829346 647.996399,452.829346 
	C647.424438,450.172760 646.842957,447.471893 646.279053,444.372009 
z"/>
<path fill="#0370C2" opacity="1.000000" stroke="none" 
	d="
M534.341675,434.707306 
	C535.518188,430.852448 538.895203,433.550537 541.373169,433.307434 
	C542.112122,433.234924 543.735229,435.771545 543.872864,437.215698 
	C544.234802,441.012817 543.800659,444.884003 544.129761,448.687073 
	C544.228760,449.831329 545.792297,450.848877 546.684937,451.924438 
	C547.451721,450.890228 548.896362,449.848022 548.884216,448.823029 
	C548.683716,431.872070 548.363647,414.921417 547.881775,397.976074 
	C547.817688,395.721649 546.724792,393.496490 546.101929,390.825623 
	C547.305542,393.544464 549.500488,396.676361 549.562073,399.849670 
	C549.903381,417.429810 549.725647,435.020020 549.725647,452.822296 
	C547.273438,452.822296 544.875427,452.822296 542.043335,452.822296 
	C542.043335,446.665924 542.043335,440.730743 542.043335,434.440308 
	C539.323792,434.440308 537.035156,434.440308 534.341675,434.707306 
z"/>
<path fill="#1A80C6" opacity="1.000000" stroke="none" 
	d="
M425.532837,450.064728 
	C430.512665,434.201996 427.256866,417.699707 427.869568,401.428650 
	C428.124847,394.649200 424.485535,389.994751 417.208252,388.413757 
	C424.506653,387.974915 428.622437,390.930481 428.859741,398.380219 
	C429.318878,412.792938 429.139130,427.234650 428.827728,441.655762 
	C428.767853,444.429199 426.889435,447.163300 425.532837,450.064728 
z"/>
<path fill="#0370C2" opacity="1.000000" stroke="none" 
	d="
M599.023560,423.441101 
	C603.780701,426.002289 601.822693,431.274323 602.861450,435.452698 
	C603.602234,438.432678 602.922974,441.747437 603.048584,444.905975 
	C603.113586,446.538361 603.210205,448.334076 603.934448,449.720673 
	C604.462341,450.731354 606.040283,451.193542 607.150085,451.900269 
	C607.648499,450.734924 608.656372,449.527771 608.564758,448.410858 
	C607.835022,439.520111 606.896545,430.646454 606.052734,421.319519 
	C606.855591,424.186768 607.928894,427.465424 608.338074,430.824921 
	C609.217285,438.044342 609.754150,445.305450 610.457092,452.826813 
	C607.472900,452.826813 605.054810,452.826813 603.003784,452.826813 
	C601.719299,443.056458 600.453674,433.429871 599.023560,423.441101 
z"/>
<path fill="#1A80C6" opacity="1.000000" stroke="none" 
	d="
M475.457947,447.164978 
	C475.438812,434.995605 476.093353,422.558868 475.855774,410.139221 
	C475.731384,403.636780 474.041077,397.164276 473.073151,390.280151 
	C474.512360,393.937225 476.891296,397.923645 477.188995,402.059845 
	C478.265961,417.022766 479.191498,432.055573 475.457947,447.164978 
z"/>
<path fill="#0370C2" opacity="1.000000" stroke="none" 
	d="
M374.552124,388.109070 
	C374.883667,406.192810 374.784637,424.247864 374.427246,442.620361 
	C373.797821,425.105194 373.418762,407.272766 373.101379,389.439209 
	C373.093445,388.992462 373.766235,388.533600 374.552124,388.109070 
z"/>
<path fill="#0370C2" opacity="1.000000" stroke="none" 
	d="
M357.228149,436.424561 
	C357.867126,436.154327 358.925690,436.334778 358.931061,436.542511 
	C359.030060,440.366974 358.786926,444.213562 359.117584,448.011780 
	C359.236694,449.380066 360.670776,450.633911 361.504791,451.939972 
	C362.334473,450.629974 363.895447,449.312958 363.882935,448.011047 
	C363.723328,431.410858 363.335785,414.812836 363.015320,398.214142 
	C362.992859,397.050537 363.042633,395.885590 363.112549,394.260437 
	C363.817505,397.310333 364.974640,400.812744 365.032501,404.333221 
	C365.283997,419.640503 365.217987,434.953033 365.255249,450.263702 
	C365.257202,451.058777 365.147552,451.854126 365.076019,452.840332 
	C362.355255,452.840332 359.927704,452.840332 357.157471,452.840332 
	C357.157471,447.486938 357.157471,442.187439 357.228149,436.424561 
z"/>
<path fill="#0370C2" opacity="1.000000" stroke="none" 
	d="
M456.995117,391.008545 
	C455.998260,397.622864 454.168457,404.239136 454.183685,410.851105 
	C454.212463,423.335571 455.302643,435.817596 455.916595,448.734436 
	C454.961517,446.400391 453.304443,443.648010 453.246216,440.862183 
	C452.958588,427.096588 452.959503,413.319855 453.196625,399.552887 
	C453.242615,396.882538 454.791840,394.238037 456.107147,391.307434 
	C456.566620,391.033203 456.995117,391.008545 456.995117,391.008545 
z"/>
<path fill="#0370C2" opacity="1.000000" stroke="none" 
	d="
M647.623474,388.240845 
	C647.533630,396.191589 646.809692,404.187531 644.288574,411.818329 
	C643.501648,411.834595 642.714722,411.850891 641.927795,411.867157 
	C640.660278,404.222870 639.392822,396.578613 638.069519,388.541046 
	C638.700378,388.956421 639.844788,389.685974 640.000366,390.586365 
	C641.096619,396.933167 641.989502,403.315155 643.748047,409.666718 
	C644.917908,402.558014 646.087830,395.449280 647.623474,388.240845 
z"/>
<path fill="#1A80C6" opacity="1.000000" stroke="none" 
	d="
M511.623169,388.089478 
	C509.339661,400.490509 506.694977,412.872986 503.980438,425.240143 
	C503.714233,426.452881 503.018433,427.571289 502.008362,428.927490 
	C501.494659,429.121490 501.124756,429.128510 501.124756,429.128510 
	C501.124756,429.128510 500.992218,429.012909 500.939636,428.793640 
	C500.887054,428.574402 500.925537,428.253906 500.925537,428.253906 
	C502.654541,421.469910 504.374359,414.683533 506.115051,407.902527 
	C507.813110,401.287720 509.532532,394.678406 511.623169,388.089478 
z"/>
<path fill="#0370C2" opacity="1.000000" stroke="none" 
	d="
M437.276978,452.412903 
	C443.992950,451.960999 443.994354,451.960999 443.994873,444.902039 
	C443.996246,426.286835 443.996246,407.671600 444.003601,388.596863 
	C444.360046,389.098236 445.012207,390.058289 445.014862,391.020142 
	C445.070465,411.075592 445.054321,431.131256 445.037537,451.186859 
	C445.037140,451.656006 444.866089,452.125031 444.731506,452.815033 
	C442.259216,452.815033 439.836792,452.815033 437.276978,452.412903 
z"/>
<path fill="#0370C2" opacity="1.000000" stroke="none" 
	d="
M617.279236,452.412964 
	C623.993042,451.960785 623.994263,451.960785 623.994873,444.901886 
	C623.996399,426.287933 623.996826,407.674011 624.004395,388.600800 
	C624.359985,389.103271 625.010254,390.064178 625.012939,391.026855 
	C625.068726,411.079102 625.052917,431.131561 625.036560,451.183960 
	C625.036194,451.654510 624.866455,452.124969 624.733459,452.814484 
	C622.261292,452.814484 619.839478,452.814484 617.279236,452.412964 
z"/>
<path fill="#0370C2" opacity="1.000000" stroke="none" 
	d="
M382.201233,443.477722 
	C381.538666,441.727295 380.119781,439.533142 380.093506,437.322479 
	C379.902252,421.233704 379.991272,405.141571 380.003815,388.590607 
	C380.394379,389.734955 381.068390,391.332397 381.105743,392.944550 
	C381.492615,409.637115 381.776886,426.332092 382.201233,443.477722 
z"/>
<path fill="#0370C2" opacity="1.000000" stroke="none" 
	d="
M500.873596,427.846008 
	C500.925537,428.253906 500.887054,428.574402 500.875000,428.734070 
	C500.228882,427.931152 499.246368,427.045593 499.013916,425.994232 
	C496.285278,413.653107 493.669159,401.287109 491.017578,388.535767 
	C491.998108,390.321838 493.390228,392.408966 493.901825,394.693298 
	C496.339569,405.578857 498.538025,416.518005 500.873596,427.846008 
z"/>
<path fill="#0370C2" opacity="1.000000" stroke="none" 
	d="
M526.043640,411.494080 
	C526.414490,413.104706 526.945007,415.174194 526.964661,417.248535 
	C527.055725,426.852905 527.264099,436.468567 526.895996,446.059662 
	C526.710693,450.888611 528.249512,452.786957 533.423706,452.004272 
	C531.457642,452.491364 529.056152,452.971497 525.968018,453.588898 
	C525.968018,439.246979 525.968018,425.601074 526.043640,411.494080 
z"/>
<path fill="#0370C2" opacity="1.000000" stroke="none" 
	d="
M343.097961,393.425842 
	C342.761108,400.223724 342.278046,407.381134 341.470398,414.750488 
	C341.747833,407.903412 342.349823,400.844391 343.097961,393.425842 
z"/>
<path fill="#1A80C6" opacity="1.000000" stroke="none" 
	d="
M457.856689,451.693787 
	C463.140564,451.852020 468.751190,453.362946 474.082275,449.454956 
	C470.313690,454.559692 465.154358,455.349274 457.856689,451.693787 
z"/>
<path fill="#0370C2" opacity="1.000000" stroke="none" 
	d="
M556.574463,388.110413 
	C556.987061,389.773132 556.987061,391.399078 556.987061,393.186707 
	C559.070374,393.759796 560.880432,394.257721 562.891235,395.038086 
	C560.505554,395.320557 557.919067,395.320557 554.444031,395.320557 
	C555.131592,392.420135 555.646729,390.246887 556.574463,388.110413 
z"/>
<path fill="#0370C2" opacity="1.000000" stroke="none" 
	d="
M341.276886,452.413116 
	C347.992676,451.961304 347.950226,451.960907 348.014496,444.960358 
	C348.043152,441.838776 348.281586,438.719147 348.715790,435.299927 
	C349.006775,440.881439 349.006775,446.761688 349.006775,452.815430 
	C346.229523,452.815430 343.821808,452.815430 341.276886,452.413116 
z"/>
<path fill="#1A80C6" opacity="1.000000" stroke="none" 
	d="
M472.943359,389.589478 
	C468.687531,389.597382 464.257599,389.283020 459.361816,388.945068 
	C463.596710,385.976074 468.208282,386.606934 472.943359,389.589478 
z"/>
<path fill="#0370C2" opacity="1.000000" stroke="none" 
	d="
M527.935181,393.369263 
	C527.670166,396.872589 527.225281,400.713013 526.464233,404.757507 
	C526.683777,401.209869 527.219543,397.458130 527.935181,393.369263 
z"/>
<path fill="#0370C2" opacity="1.000000" stroke="none" 
	d="
M349.401794,434.779510 
	C351.025513,431.290527 353.946991,433.096863 356.878387,434.050537 
	C354.649536,434.410461 352.224487,434.479553 349.401794,434.779510 
z"/>
<path fill="#1870BA" opacity="1.000000" stroke="none" 
	d="
M476.614197,143.185944 
	C474.041565,144.116287 471.084778,145.058182 467.731323,145.999969 
	C470.299805,145.065750 473.264893,144.131638 476.614197,143.185944 
z"/>
<path fill="#0370C2" opacity="1.000000" stroke="none" 
	d="
M593.399658,422.064728 
	C594.954651,422.180511 596.895569,422.287048 598.879761,422.770508 
	C597.210571,422.783478 595.498047,422.419464 593.399658,422.064728 
z"/>
<path fill="#0370C2" opacity="1.000000" stroke="none" 
	d="
M605.995483,420.544983 
	C605.481262,420.550537 604.825256,420.182129 604.169189,419.813721 
	C604.621094,419.082855 605.073059,418.351990 605.746460,417.779572 
	C605.929871,418.682373 605.891785,419.426697 605.995483,420.544983 
z"/>
<path fill="#0370C2" opacity="1.000000" stroke="none" 
	d="
M363.220764,393.547668 
	C362.691559,393.048737 362.095276,392.224762 361.725006,391.211853 
	C362.351898,391.756134 362.752777,392.489349 363.220764,393.547668 
z"/>
<path fill="#1A80C6" opacity="1.000000" stroke="none" 
	d="
M457.262390,390.873993 
	C456.995117,391.008545 456.566620,391.033203 456.352142,391.040741 
	C456.863678,390.351746 457.589691,389.655212 458.632355,388.922058 
	C458.475891,389.503479 458.002777,390.121460 457.262390,390.873993 
z"/>
<path fill="#0899DE" opacity="1.000000" stroke="none" 
	d="
M587.290894,188.596436 
	C586.742065,188.340103 586.086670,187.799393 585.542908,186.925720 
	C586.164490,187.165863 586.674377,187.738968 587.290894,188.596436 
z"/>
<path fill="#0370C2" opacity="1.000000" stroke="none" 
	d="
M385.710815,445.884827 
	C385.452332,446.029236 384.869263,446.143677 384.187256,445.986877 
	C384.520996,445.762054 384.953583,445.808472 385.710815,445.884827 
z"/>
<path fill="#1A80C6" opacity="1.000000" stroke="none" 
	d="
M456.943390,449.949951 
	C457.183746,450.235962 457.424072,450.522003 457.657166,451.097107 
	C457.242340,451.079071 456.834747,450.771942 456.513855,450.207855 
	C456.600494,449.950897 456.943390,449.949951 456.943390,449.949951 
z"/>
<path fill="#244698" opacity="1.000000" stroke="none" 
	d="
M405.676880,303.448822 
	C406.016266,303.614288 406.439026,304.097290 406.869720,304.927795 
	C406.505188,304.772308 406.132721,304.269348 405.676880,303.448822 
z"/>
<path fill="#244698" opacity="1.000000" stroke="none" 
	d="
M408.158875,189.801147 
	C408.289703,189.972244 408.252441,190.317261 407.957703,190.779175 
	C407.759583,190.577225 407.856415,190.270248 408.158875,189.801147 
z"/>
<path fill="#1870BA" opacity="1.000000" stroke="none" 
	d="
M482.675049,142.179504 
	C482.652710,142.389938 482.327484,142.601303 481.704102,142.842651 
	C481.727997,142.641922 482.050079,142.411194 482.675049,142.179504 
z"/>
<path fill="#293D8F" opacity="1.000000" stroke="none" 
	d="
M408.801880,308.436096 
	C409.023834,308.409027 409.368591,308.693787 409.801758,309.315430 
	C409.568329,309.350861 409.246490,309.049408 408.801880,308.436096 
z"/>
<path fill="#2056A5" opacity="1.000000" stroke="none" 
	d="
M423.875977,326.383087 
	C424.065399,326.331726 424.381134,326.530487 424.805908,326.994873 
	C424.610718,327.051392 424.306519,326.842285 423.875977,326.383087 
z"/>
<path fill="#0370C2" opacity="1.000000" stroke="none" 
	d="
M617.721313,388.121399 
	C617.889343,388.407410 617.732300,388.624939 617.321899,388.882019 
	C617.248535,388.683014 617.357788,388.393463 617.721313,388.121399 
z"/>
<path fill="#1A68B3" opacity="1.000000" stroke="none" 
	d="
M506.259338,355.924683 
	C506.197601,355.499939 506.444550,355.403748 506.856384,355.727539 
	C506.940491,355.866425 506.487183,355.972076 506.259338,355.924683 
z"/>
<path fill="#0370C2" opacity="1.000000" stroke="none" 
	d="
M437.721222,388.119812 
	C437.889618,388.406342 437.732208,388.624542 437.320679,388.882507 
	C437.247070,388.683136 437.356689,388.392883 437.721222,388.119812 
z"/>
<path fill="#0370C2" opacity="1.000000" stroke="none" 
	d="
M456.819275,449.731995 
	C456.943390,449.949951 456.600494,449.950897 456.429413,449.961731 
	C456.149414,449.841980 456.040527,449.711456 455.865051,449.334564 
	C456.097382,449.230133 456.396271,449.372070 456.819275,449.731995 
z"/>
<path fill="#1A80C6" opacity="1.000000" stroke="none" 
	d="
M474.724487,449.153778 
	C474.557129,448.988373 474.577850,448.654755 474.808838,448.159119 
	C474.983643,448.326599 474.948120,448.656067 474.724487,449.153778 
z"/>
<path fill="#0370C2" opacity="1.000000" stroke="none" 
	d="
M384.116058,445.657623 
	C383.902802,445.734253 383.592896,445.546692 383.158813,445.113007 
	C383.362885,445.042389 383.691162,445.217896 384.116058,445.657623 
z"/>
<path fill="#EEF2F3" opacity="1.000000" stroke="none" 
	d="
M517.603394,156.402054 
	C521.342896,157.424118 524.698364,158.358994 528.430420,159.429474 
	C537.272827,164.086380 545.738647,168.607681 554.554199,173.211243 
	C565.639099,182.185944 574.941284,192.279953 581.634155,204.995224 
	C585.003967,215.386795 589.000244,225.424927 590.937561,235.845825 
	C594.366028,254.287567 591.002991,272.121399 583.064575,289.086517 
	C582.648071,289.976593 582.289734,290.893890 581.821289,292.137329 
	C575.681458,302.727478 568.696106,312.232178 559.537415,319.975647 
	C558.160461,321.139832 556.687134,322.189972 555.105713,323.589478 
	C548.518799,327.596832 542.084595,331.307587 535.052734,335.251404 
	C533.874329,335.883667 533.293640,336.282898 532.713013,336.682129 
	C532.713013,336.682129 532.826904,336.752228 532.490601,336.736816 
	C531.355164,337.048523 530.556030,337.375610 529.756836,337.702698 
	C529.756836,337.702698 529.709717,337.630798 529.666870,337.624878 
	C522.998779,339.112976 516.373474,340.606964 509.349701,342.243164 
	C490.715363,343.912720 473.192413,341.440582 456.354645,333.047821 
	C455.989410,333.020233 455.607544,332.748016 455.255249,332.470490 
	C454.626862,332.001923 454.325134,331.943817 453.997833,332.018616 
	C453.997833,332.018616 453.751953,331.825653 453.396545,331.557434 
	C452.042053,330.821564 451.042969,330.353882 450.043884,329.886230 
	C444.240143,325.324585 438.436401,320.762970 432.315186,316.083740 
	C423.788330,307.080048 416.634186,297.478455 411.602478,286.036499 
	C411.347137,285.808411 411.334076,285.858307 411.246399,285.474976 
	C410.215271,282.636261 409.271851,280.180908 408.328400,277.725555 
	C408.328400,277.725555 408.354187,277.855591 408.354187,277.492889 
	C408.210663,276.753998 408.067169,276.377808 407.923706,276.001587 
	C407.810211,275.448120 407.696686,274.894653 407.381653,273.814850 
	C407.086975,272.860840 406.993866,272.433197 406.900757,272.005524 
	C406.796509,271.450806 406.692261,270.896118 406.375671,269.815308 
	C406.066010,268.863037 405.968628,268.436859 405.871216,268.010712 
	C405.857666,267.549072 405.844086,267.087463 405.658447,265.980560 
	C405.281647,264.228027 405.076935,263.120758 404.872253,262.013489 
	C403.073944,248.729126 404.100098,235.642639 407.843933,222.034119 
	C408.107788,220.879181 408.152130,220.421295 408.196442,219.963409 
	C408.196442,219.963409 408.292725,219.842194 408.542755,219.520447 
	C409.046997,218.249451 409.301208,217.300201 409.555420,216.350952 
	C409.555420,216.350952 409.120667,216.370041 409.542847,216.130188 
	C410.067963,215.298264 410.170929,214.706192 410.273865,214.114120 
	C410.273865,214.114120 410.162903,214.104111 410.425903,213.952484 
	C410.968903,213.001816 411.248932,212.202744 411.528961,211.403671 
	C411.528961,211.403671 411.377411,211.274643 411.662048,211.113907 
	C412.140717,210.446335 412.334747,209.939484 412.528748,209.432648 
	C412.528748,209.432648 412.557281,209.410187 412.574463,209.404266 
	C418.154480,196.924362 426.464600,186.513153 436.774780,177.185974 
	C442.777405,173.011688 448.581268,169.105835 454.925903,165.041412 
	C455.796387,164.786560 456.006897,164.572845 456.098145,164.241684 
	C456.098145,164.241684 456.569519,164.151840 457.069519,164.042694 
	C457.820923,163.664139 458.072327,163.394730 458.323730,163.125305 
	C458.323730,163.125320 458.678802,163.116562 458.834229,163.030823 
	C468.407928,160.318253 477.826263,157.691422 487.997711,155.026840 
	C489.493347,154.923889 490.235840,154.858658 490.978333,154.793442 
	C493.372223,154.672668 495.766083,154.551880 498.541931,154.336105 
	C505.022369,154.932358 511.120850,155.623627 517.603394,156.402054 
M485.059082,196.937393 
	C485.059082,196.937393 485.143250,196.923492 484.939667,196.422974 
	C484.634277,196.255249 484.328888,196.087540 483.671448,195.409088 
	C482.822510,194.827759 481.973541,194.246429 480.756287,193.156189 
	C478.747162,193.294067 476.738068,193.431961 474.699463,193.689774 
	C474.699463,193.689774 474.653320,193.575226 474.086914,193.752899 
	C473.699860,194.159225 473.312775,194.565552 472.321136,195.460068 
	C471.914093,197.699768 471.158325,199.938583 471.152649,202.179321 
	C471.073792,233.233047 471.097626,264.287018 471.097961,295.340942 
	C471.097961,296.337097 471.017487,297.345459 471.140320,298.327423 
	C471.898926,304.391785 477.629791,306.823669 482.441986,303.027252 
	C484.766052,301.193756 486.818237,299.015564 489.591858,296.705475 
	C491.778992,294.572174 493.966095,292.438843 496.757751,289.991547 
	C500.945892,286.039062 505.134033,282.086578 509.907227,277.845825 
	C518.359131,270.105896 526.852478,262.410583 535.245789,254.607590 
	C539.592285,250.566742 539.668030,246.835022 535.293457,242.764603 
	C526.307556,234.403442 517.158020,226.218201 507.668976,217.414429 
	C506.447968,216.364334 505.202148,215.341522 504.010162,214.259415 
	C498.698151,209.436874 493.401520,204.597382 487.882660,199.268463 
	C487.335388,198.814102 486.788116,198.359756 485.997711,197.410889 
	C485.687195,197.224716 485.376678,197.038559 485.059082,196.937393 
z"/>
<path fill="#244698" opacity="1.000000" stroke="none" 
	d="
M408.238281,278.126709 
	C409.271851,280.180908 410.215271,282.636261 411.240234,285.453644 
	C410.263916,283.386383 409.206024,280.957092 408.238281,278.126709 
z"/>
<path fill="#244698" opacity="1.000000" stroke="none" 
	d="
M404.652039,262.239258 
	C405.076935,263.120758 405.281647,264.228027 405.496155,265.672363 
	C405.147919,264.827942 404.789856,263.646454 404.652039,262.239258 
z"/>
<path fill="#244698" opacity="1.000000" stroke="none" 
	d="
M409.159851,216.459061 
	C409.301208,217.300201 409.046997,218.249451 408.516113,219.447784 
	C408.414398,218.653625 408.589355,217.610397 409.159851,216.459061 
z"/>
<path fill="#244698" opacity="1.000000" stroke="none" 
	d="
M411.166382,211.453705 
	C411.248932,212.202744 410.968903,213.001816 410.444214,214.005096 
	C410.400940,213.307465 410.602356,212.405594 411.166382,211.453705 
z"/>
<path fill="#244698" opacity="1.000000" stroke="none" 
	d="
M412.182556,209.463257 
	C412.334747,209.939484 412.140717,210.446335 411.756287,211.145889 
	C411.656067,210.723694 411.746216,210.108765 412.182556,209.463257 
z"/>
<path fill="#244698" opacity="1.000000" stroke="none" 
	d="
M407.958496,220.082779 
	C408.152130,220.421295 408.107788,220.879181 407.925659,221.653839 
	C407.765472,221.381119 407.743011,220.791626 407.958496,220.082779 
z"/>
<path fill="#244698" opacity="1.000000" stroke="none" 
	d="
M405.678101,268.187286 
	C405.968628,268.436859 406.066010,268.863037 406.166504,269.617798 
	C405.941406,269.418915 405.713226,268.891388 405.678101,268.187286 
z"/>
<path fill="#244698" opacity="1.000000" stroke="none" 
	d="
M406.702759,272.178711 
	C406.993866,272.433197 407.086975,272.860840 407.171936,273.618713 
	C406.944122,273.416565 406.724457,272.884247 406.702759,272.178711 
z"/>
<path fill="#244698" opacity="1.000000" stroke="none" 
	d="
M407.719849,276.181091 
	C408.067169,276.377808 408.210663,276.753998 408.381134,277.432343 
	C408.110718,277.276550 407.813354,276.818604 407.719849,276.181091 
z"/>
<path fill="#244698" opacity="1.000000" stroke="none" 
	d="
M409.969086,214.269699 
	C410.170929,214.706192 410.067963,215.298264 409.758057,216.109406 
	C409.588867,215.694092 409.626587,215.059677 409.969086,214.269699 
z"/>
<path fill="#EEF1F2" opacity="1.000000" stroke="none" 
	d="
M592.633545,408.890198 
	C592.633362,404.112396 592.633362,399.818970 592.633362,395.627045 
	C598.777039,393.717651 600.716125,394.902466 600.954895,400.599945 
	C601.079651,403.576996 601.094116,406.573334 600.909729,409.545502 
	C600.563782,415.121643 599.208313,416.053162 592.633789,415.081177 
	C592.633789,413.244843 592.633789,411.309692 592.633545,408.890198 
z"/>
<path fill="#0370C2" opacity="1.000000" stroke="none" 
	d="
M501.181946,429.263611 
	C501.124756,429.128510 501.494659,429.121490 501.677673,429.130035 
	C501.860687,429.138580 501.618256,429.475067 501.618256,429.475067 
	C501.618256,429.475067 501.239136,429.398712 501.181946,429.263611 
z"/>
<path fill="#EEF1F2" opacity="1.000000" stroke="none" 
	d="
M661.548096,470.951202 
	C663.350159,472.913147 665.770569,474.891663 665.839355,476.948853 
	C666.217468,488.255066 666.131714,499.582703 665.910583,510.897247 
	C665.873657,512.785583 664.390442,514.645691 663.285645,516.750488 
	C553.636719,516.985535 444.277527,516.988953 334.451416,517.047485 
	C330.789886,516.053040 329.914307,513.729065 329.944611,510.546661 
	C330.050476,499.433960 329.821350,488.314972 330.134460,477.210083 
	C330.192230,475.160461 332.181152,473.165314 333.631622,471.021545 
	C334.814545,470.944061 335.644592,471.030273 336.474640,471.030243 
	C444.676727,471.025604 552.878845,471.014709 661.548096,470.951202 
M366.872925,491.977814 
	C361.709351,491.918060 356.536469,492.013336 351.387726,491.705597 
	C349.807739,491.611145 348.293732,490.413147 346.749512,489.720428 
	C346.950195,489.082642 347.150879,488.444824 347.351562,487.807037 
	C355.580597,487.807037 363.809631,487.807037 372.329529,487.807037 
	C372.223358,485.881805 372.153870,484.621429 372.069183,483.085846 
	C364.317444,483.085846 356.843201,482.915588 349.382233,483.156799 
	C345.579041,483.279755 342.658844,485.062622 342.658661,489.522308 
	C342.658508,493.584869 345.122894,495.936371 349.791656,496.069611 
	C354.454315,496.202698 359.130585,495.961884 363.785919,496.190369 
	C365.303375,496.264801 366.773712,497.299347 368.265594,497.894775 
	C368.087158,498.562378 367.908691,499.229950 367.730255,499.897522 
	C359.406067,499.897522 351.081848,499.897522 342.292725,499.897522 
	C342.538361,502.122681 342.689240,503.489624 342.846649,504.915680 
	C350.332336,504.915680 357.330414,504.996857 364.325195,504.881226 
	C367.786469,504.824005 371.098083,504.046967 372.042816,499.997131 
	C372.931519,496.187317 371.337891,493.553070 366.872925,491.977814 
M647.679932,503.438385 
	C652.483521,501.328674 655.059082,497.859070 654.139893,492.440857 
	C653.257263,487.238129 649.400635,484.609375 644.802612,484.174866 
	C638.274963,483.557953 631.645447,484.018219 624.916382,484.018219 
	C624.916382,490.884796 624.916382,497.797424 624.916382,505.558136 
	C632.496582,504.966766 639.742249,504.401489 647.679932,503.438385 
M413.963257,486.800903 
	C413.647766,490.397217 413.181122,493.988403 413.058044,497.591278 
	C412.927582,501.410614 414.819336,504.212952 418.725983,504.374573 
	C424.971313,504.632935 431.261383,504.566101 437.486115,504.062500 
	C439.150299,503.927917 441.478180,502.019226 442.084747,500.395691 
	C446.288177,489.145508 441.969421,483.152252 430.153625,483.417206 
	C426.675293,483.495209 423.170319,483.493958 419.735596,483.958252 
	C417.899048,484.206543 416.186157,485.369354 413.963257,486.800903 
M579.401184,494.166534 
	C579.191895,497.447144 577.450867,495.890259 576.082336,495.171021 
	C571.101379,492.553284 566.178955,489.821930 561.163269,487.273407 
	C559.065491,486.207489 556.789490,485.492157 554.209839,484.464081 
	C554.209839,491.771637 554.209839,498.204102 554.209839,505.018311 
	C555.779053,504.869934 557.112000,504.743927 558.689087,504.594818 
	C558.689087,500.207764 558.689087,496.255707 558.689087,491.604004 
	C567.326843,495.987579 575.460815,500.115540 584.032898,504.465790 
	C584.032898,500.475677 584.032898,497.169434 584.032898,493.863190 
	C584.032898,490.408081 584.032898,486.952972 584.032898,483.618561 
	C580.634766,482.657837 579.136230,483.481384 579.380554,486.777405 
	C579.539795,488.925812 579.410828,491.095642 579.401184,494.166534 
M491.907135,498.983948 
	C484.816162,495.394653 489.730865,488.337219 487.120026,482.674866 
	C485.822723,483.308441 483.772491,483.632965 483.420776,484.584991 
	C479.415649,495.425293 487.148529,505.383270 498.861420,504.708618 
	C507.065552,504.236053 512.391052,501.023010 513.028076,495.535461 
	C513.495422,491.509216 513.119690,487.385101 513.119690,483.018616 
	C511.444916,483.185852 510.247162,483.305420 508.965576,483.433380 
	C508.965576,485.978210 508.945465,488.130157 508.969299,490.281616 
	C509.046021,497.209442 506.575745,499.877045 499.575043,500.019958 
	C497.285889,500.066681 494.985199,499.547729 491.907135,498.983948 
z"/>
<path fill="#EEF1F2" opacity="1.000000" stroke="none" 
	d="
M534.022095,409.051544 
	C534.265381,404.919281 534.237061,401.228027 534.889709,397.661407 
	C535.140991,396.288300 536.941467,395.198608 538.036011,393.979797 
	C539.164978,395.183990 541.149841,396.306091 541.274597,397.606659 
	C541.812439,403.212769 541.859619,408.870056 541.977966,414.510956 
	C542.067871,418.798615 541.995850,423.089661 541.995850,427.635132 
	C539.331238,427.635132 537.062622,427.635132 534.022156,427.635132 
	C534.022156,421.698975 534.022156,415.620636 534.022095,409.051544 
z"/>
<path fill="#E8EFF1" opacity="1.000000" stroke="none" 
	d="
M349.964111,396.007843 
	C351.343994,395.359955 353.677826,393.894592 353.941986,394.202820 
	C355.225708,395.700867 356.700928,397.651825 356.755157,399.482513 
	C357.028687,408.716919 356.880798,417.963867 356.880798,427.910706 
	C354.593140,427.910706 352.359741,427.910706 349.610046,427.470215 
	C349.383881,416.689087 349.673981,406.348480 349.964111,396.007843 
z"/>
<path fill="#0370C2" opacity="1.000000" stroke="none" 
	d="
M349.625061,396.209534 
	C349.673981,406.348480 349.383881,416.689087 349.174164,427.489136 
	C348.847534,427.274048 348.092285,426.602661 348.086151,425.924500 
	C348.005188,416.953186 347.994995,407.980560 348.082489,399.009399 
	C348.091003,398.139496 348.866547,397.277130 349.625061,396.209534 
z"/>
<path fill="#E8EFF1" opacity="1.000000" stroke="none" 
	d="
M468.995361,443.003387 
	C467.377625,443.865601 465.122864,445.833008 464.281525,445.348114 
	C462.769684,444.476715 461.254364,442.148499 461.223419,440.402679 
	C460.979645,426.654022 460.998657,412.898102 461.152710,399.146881 
	C461.188446,395.955994 462.373535,393.124512 467.159546,394.361267 
	C468.087524,395.155670 468.491974,395.659149 468.896393,396.162628 
	C468.896393,396.162628 468.926483,396.047821 468.915680,396.483032 
	C468.935028,412.279968 468.965210,427.641693 468.995361,443.003387 
z"/>
<path fill="#0370C2" opacity="1.000000" stroke="none" 
	d="
M469.295105,442.759155 
	C468.965210,427.641693 468.935028,412.279968 468.856506,396.478546 
	C469.539246,397.934540 470.871979,399.820435 470.903259,401.727631 
	C471.097931,413.609802 471.057465,425.497345 470.938629,437.381531 
	C470.921478,439.096985 470.063629,440.804016 469.295105,442.759155 
z"/>
<path fill="#0370C2" opacity="1.000000" stroke="none" 
	d="
M468.877808,395.801727 
	C468.491974,395.659149 468.087524,395.155670 467.540161,394.348999 
	C467.884552,394.510803 468.371887,394.975800 468.877808,395.801727 
z"/>
<path fill="#E8EFF1" opacity="1.000000" stroke="none" 
	d="
M422.127319,406.964325 
	C422.088898,415.342743 422.050446,423.721191 421.994629,432.999268 
	C421.853851,436.226349 421.730469,438.553711 421.607117,440.881104 
	C421.607117,440.881104 421.749725,440.913055 421.486206,441.026611 
	C421.140778,441.758240 421.058929,442.376251 420.977051,442.994263 
	C418.718445,443.643555 416.459839,444.292816 413.738007,444.477173 
	C413.239410,427.645966 413.204071,411.279663 413.168701,394.913330 
	C414.704132,394.740875 416.239594,394.568390 418.245911,394.525940 
	C419.137756,394.816101 419.558716,394.976257 419.979706,395.136383 
	C419.979706,395.136383 419.973633,395.022583 420.022278,395.285522 
	C420.361389,395.758331 420.651886,395.968201 420.942383,396.178040 
	C420.942383,396.178040 420.935699,396.038086 420.936035,396.455627 
	C421.333374,400.236877 421.730347,403.600616 422.127319,406.964325 
z"/>
<path fill="#0370C2" opacity="1.000000" stroke="none" 
	d="
M412.850067,395.202850 
	C413.204071,411.279663 413.239410,427.645966 413.352051,444.471985 
	C412.952393,443.805420 412.067078,442.681610 412.060394,441.552582 
	C411.972992,426.828064 412.003784,412.102814 412.037659,397.377808 
	C412.039124,396.748932 412.359558,396.120819 412.850067,395.202850 
z"/>
<path fill="#0370C2" opacity="1.000000" stroke="none" 
	d="
M422.385193,406.661499 
	C421.730347,403.600616 421.333374,400.236877 420.867004,396.467468 
	C424.794952,398.887878 422.602875,402.823303 422.385193,406.661499 
z"/>
<path fill="#0370C2" opacity="1.000000" stroke="none" 
	d="
M421.966125,440.700623 
	C421.730469,438.553711 421.853851,436.226349 422.052094,433.467041 
	C422.193024,435.530121 422.259094,438.025146 421.966125,440.700623 
z"/>
<path fill="#0370C2" opacity="1.000000" stroke="none" 
	d="
M421.231384,442.800568 
	C421.058929,442.376251 421.140778,441.758240 421.473389,440.954712 
	C421.644653,441.381744 421.565186,441.994293 421.231384,442.800568 
z"/>
<path fill="#0370C2" opacity="1.000000" stroke="none" 
	d="
M419.789917,394.860596 
	C419.558716,394.976257 419.137756,394.816101 418.549377,394.359436 
	C418.788086,394.236908 419.194122,394.410889 419.789917,394.860596 
z"/>
<path fill="#0370C2" opacity="1.000000" stroke="none" 
	d="
M420.834961,395.926422 
	C420.651886,395.968201 420.361389,395.758331 419.965759,395.292755 
	C420.149567,395.249634 420.438568,395.462219 420.834961,395.926422 
z"/>
<path fill="#1A68B3" opacity="1.000000" stroke="none" 
	d="
M450.109436,330.261353 
	C451.042969,330.353882 452.042053,330.821564 453.240295,331.559448 
	C452.351288,331.431915 451.263153,331.034180 450.109436,330.261353 
z"/>
<path fill="#1A68B3" opacity="1.000000" stroke="none" 
	d="
M454.026031,332.260620 
	C454.325134,331.943817 454.626862,332.001923 455.035706,332.388184 
	C454.797058,332.556488 454.425629,332.529541 454.026031,332.260620 
z"/>
<path fill="#1870BA" opacity="1.000000" stroke="none" 
	d="
M490.771271,154.590042 
	C490.235840,154.858658 489.493347,154.923889 488.380066,154.931198 
	C488.860901,154.711075 489.712555,154.548859 490.771271,154.590042 
z"/>
<path fill="#1A68B3" opacity="1.000000" stroke="none" 
	d="
M455.983704,164.058807 
	C456.006897,164.572845 455.796387,164.786560 455.233368,164.875488 
	C455.289825,164.537399 455.579559,164.206665 455.983704,164.058807 
z"/>
<path fill="#1A68B3" opacity="1.000000" stroke="none" 
	d="
M458.058655,163.178207 
	C458.072327,163.394730 457.820923,163.664139 457.285889,163.938950 
	C457.266022,163.706604 457.529816,163.468857 458.058655,163.178207 
z"/>
<path fill="#1870BA" opacity="1.000000" stroke="none" 
	d="
M501.063019,354.581848 
	C495.241028,354.640137 489.402344,354.734497 483.717224,353.846161 
	C478.578003,353.043121 481.662598,348.510468 481.220551,345.691956 
	C481.118927,345.043976 483.502289,343.278687 484.746368,343.274384 
	C489.855469,343.256805 494.966217,343.720551 500.544464,344.017548 
	C501.046112,347.415222 501.079681,350.802582 501.063019,354.581848 
z"/>
<path fill="#137DC5" opacity="1.000000" stroke="none" 
	d="
M533.024170,336.753296 
	C533.293640,336.282898 533.874329,335.883667 534.715210,335.409973 
	C534.428772,335.831848 533.882080,336.328156 533.024170,336.753296 
z"/>
<path fill="#137DC5" opacity="1.000000" stroke="none" 
	d="
M530.125793,337.791504 
	C530.556030,337.375610 531.355164,337.048523 532.490356,336.669983 
	C532.049194,337.039124 531.271973,337.459747 530.125793,337.791504 
z"/>
<path fill="#EEF2F2" opacity="1.000000" stroke="none" 
	d="
M493.310120,427.179779 
	C493.072693,426.100861 493.208344,425.008179 493.361938,423.917969 
	C493.362335,423.915192 493.686432,423.899200 493.753174,423.978638 
	C493.847382,424.090729 493.842316,424.286255 493.999451,424.714905 
	C493.973969,425.711121 493.828735,426.438568 493.310120,427.179779 
z"/>
<path fill="#1A68B3" opacity="1.000000" stroke="none" 
	d="
M486.240845,197.905396 
	C486.788116,198.359756 487.335388,198.814102 487.970428,199.960449 
	C487.654175,205.937027 487.250153,211.221619 486.453552,216.289246 
	C485.483826,215.964890 484.906677,215.857513 484.230988,215.667572 
	C484.036194,215.438461 483.978180,215.278107 483.974060,214.829041 
	C483.994751,214.370667 483.999817,214.187180 484.126465,213.950836 
	C484.164154,213.930328 484.080231,213.962677 483.793915,214.107666 
	C483.335754,214.409744 483.156219,214.655014 483.040588,215.427368 
	C483.022095,236.684296 482.995239,257.470032 483.051178,278.255554 
	C483.055420,279.825073 483.649139,281.393036 484.158051,283.179626 
	C484.861084,282.881592 485.374878,282.365662 485.905212,281.858948 
	C485.921753,281.868164 485.882355,281.848969 486.183380,282.150208 
	C486.657501,284.215240 486.710754,286.001068 487.029968,287.738037 
	C487.599792,290.838715 488.330261,293.909882 488.993530,296.993408 
	C486.818237,299.015564 484.766052,301.193756 482.441986,303.027252 
	C477.629791,306.823669 471.898926,304.391785 471.140320,298.327423 
	C471.017487,297.345459 471.097961,296.337097 471.097961,295.340942 
	C471.097626,264.287018 471.073792,233.233047 471.152649,202.179321 
	C471.158325,199.938583 471.914093,197.699768 472.938904,195.176804 
	C473.922211,194.454102 474.287750,194.014664 474.653320,193.575226 
	C474.653320,193.575226 474.699463,193.689774 475.106201,193.745331 
	C477.383514,193.755630 479.254059,193.710358 481.124603,193.665100 
	C481.973541,194.246429 482.822510,194.827759 483.971313,195.894272 
	C484.561890,196.560791 484.852570,196.742142 485.143250,196.923492 
	C485.143250,196.923492 485.059082,196.937393 485.183960,197.144318 
	C485.619476,197.535950 485.930176,197.720673 486.240845,197.905396 
z"/>
<path fill="#137DC5" opacity="1.000000" stroke="none" 
	d="
M508.075806,217.960541 
	C517.158020,226.218201 526.307556,234.403442 535.293457,242.764603 
	C539.668030,246.835022 539.592285,250.566742 535.245789,254.607590 
	C526.852478,262.410583 518.359131,270.105896 509.278992,277.720276 
	C508.063599,272.609711 507.476410,267.624664 507.033325,262.353180 
	C511.900940,257.700287 516.624512,253.333847 521.585571,248.747833 
	C515.471985,243.031235 509.687439,237.622360 503.927765,231.768585 
	C504.305847,227.792801 504.446472,224.219421 505.137756,220.756012 
	C505.354187,219.671890 507.054657,218.884033 508.075806,217.960541 
z"/>
<path fill="#2176BD" opacity="1.000000" stroke="none" 
	d="
M507.872375,217.687500 
	C507.054657,218.884033 505.354187,219.671890 505.137756,220.756012 
	C504.446472,224.219421 504.305847,227.792801 503.621826,231.620407 
	C497.809448,226.780136 492.327789,221.643173 486.846130,216.506226 
	C487.250153,211.221619 487.654175,205.937027 488.078766,200.208206 
	C493.401520,204.597382 498.698151,209.436874 504.010162,214.259415 
	C505.202148,215.341522 506.447968,216.364334 507.872375,217.687500 
z"/>
<path fill="#1870BA" opacity="1.000000" stroke="none" 
	d="
M506.889221,262.639648 
	C507.476410,267.624664 508.063599,272.609711 508.986481,277.864441 
	C505.134033,282.086578 500.945892,286.039062 496.226257,289.813171 
	C495.128571,287.535248 494.642029,285.409973 493.974457,283.343170 
	C493.261139,281.134857 492.377075,278.981689 491.741211,276.506592 
	C496.906281,271.685669 501.897736,267.162659 506.889221,262.639648 
z"/>
<path fill="#2176BD" opacity="1.000000" stroke="none" 
	d="
M491.567566,276.804443 
	C492.377075,278.981689 493.261139,281.134857 493.974457,283.343170 
	C494.642029,285.409973 495.128571,287.535248 495.924011,289.970154 
	C493.966095,292.438843 491.778992,294.572174 489.292725,296.849426 
	C488.330261,293.909882 487.599792,290.838715 487.029968,287.738037 
	C486.710754,286.001068 486.657501,284.215240 486.333282,281.862183 
	C487.977264,279.783478 489.772400,278.293945 491.567566,276.804443 
z"/>
<path fill="#2176BD" opacity="1.000000" stroke="none" 
	d="
M480.940430,193.410645 
	C479.254059,193.710358 477.383514,193.755630 475.120972,193.685364 
	C476.738068,193.431961 478.747162,193.294067 480.940430,193.410645 
z"/>
<path fill="#2176BD" opacity="1.000000" stroke="none" 
	d="
M474.370117,193.664062 
	C474.287750,194.014664 473.922211,194.454102 473.241211,194.932709 
	C473.312775,194.565552 473.699860,194.159225 474.370117,193.664062 
z"/>
<path fill="#2176BD" opacity="1.000000" stroke="none" 
	d="
M485.041443,196.673218 
	C484.852570,196.742142 484.561890,196.560791 484.147339,196.149643 
	C484.328888,196.087540 484.634277,196.255249 485.041443,196.673218 
z"/>
<path fill="#2176BD" opacity="1.000000" stroke="none" 
	d="
M486.119263,197.658142 
	C485.930176,197.720673 485.619476,197.535950 485.187500,197.101807 
	C485.376678,197.038559 485.687195,197.224716 486.119263,197.658142 
z"/>
<path fill="#105180" opacity="1.000000" stroke="none" 
	d="
M367.307068,492.037140 
	C371.337891,493.553070 372.931519,496.187317 372.042816,499.997131 
	C371.098083,504.046967 367.786469,504.824005 364.325195,504.881226 
	C357.330414,504.996857 350.332336,504.915680 342.846649,504.915680 
	C342.689240,503.489624 342.538361,502.122681 342.292725,499.897522 
	C351.081848,499.897522 359.406067,499.897522 367.730255,499.897522 
	C367.908691,499.229950 368.087158,498.562378 368.265594,497.894775 
	C366.773712,497.299347 365.303375,496.264801 363.785919,496.190369 
	C359.130585,495.961884 354.454315,496.202698 349.791656,496.069611 
	C345.122894,495.936371 342.658508,493.584869 342.658661,489.522308 
	C342.658844,485.062622 345.579041,483.279755 349.382233,483.156799 
	C356.843201,482.915588 364.317444,483.085846 372.069183,483.085846 
	C372.153870,484.621429 372.223358,485.881805 372.329529,487.807037 
	C363.809631,487.807037 355.580597,487.807037 347.351562,487.807037 
	C347.150879,488.444824 346.950195,489.082642 346.749512,489.720428 
	C348.293732,490.413147 349.807739,491.611145 351.387726,491.705597 
	C356.536469,492.013336 361.709351,491.918060 367.307068,492.037140 
z"/>
<path fill="#105180" opacity="1.000000" stroke="none" 
	d="
M647.333862,503.637299 
	C639.742249,504.401489 632.496582,504.966766 624.916382,505.558136 
	C624.916382,497.797424 624.916382,490.884796 624.916382,484.018219 
	C631.645447,484.018219 638.274963,483.557953 644.802612,484.174866 
	C649.400635,484.609375 653.257263,487.238129 654.139893,492.440857 
	C655.059082,497.859070 652.483521,501.328674 647.333862,503.637299 
M647.331787,489.960785 
	C641.470032,486.422638 635.232727,488.601257 629.290344,487.965302 
	C629.290344,492.541595 629.290344,496.313354 629.290344,500.707336 
	C634.334534,500.445526 639.145691,500.563507 643.832581,499.856964 
	C649.364746,499.022919 650.993347,494.852814 647.331787,489.960785 
z"/>
<path fill="#105180" opacity="1.000000" stroke="none" 
	d="
M414.190369,486.460144 
	C416.186157,485.369354 417.899048,484.206543 419.735596,483.958252 
	C423.170319,483.493958 426.675293,483.495209 430.153625,483.417206 
	C441.969421,483.152252 446.288177,489.145508 442.084747,500.395691 
	C441.478180,502.019226 439.150299,503.927917 437.486115,504.062500 
	C431.261383,504.566101 424.971313,504.632935 418.725983,504.374573 
	C414.819336,504.212952 412.927582,501.410614 413.058044,497.591278 
	C413.181122,493.988403 413.647766,490.397217 414.190369,486.460144 
M417.368439,494.545380 
	C416.746521,499.242432 419.249481,500.629089 423.437469,500.385590 
	C425.914886,500.241577 428.405304,500.337372 430.886230,500.235901 
	C438.647186,499.918579 438.511932,499.905701 438.296570,491.957092 
	C438.213837,488.904663 437.108490,487.845520 434.154358,487.982330 
	C430.514801,488.150940 426.845734,488.248474 423.218964,487.979095 
	C418.959320,487.662720 416.963501,489.267059 417.368439,494.545380 
z"/>
<path fill="#105180" opacity="1.000000" stroke="none" 
	d="
M579.406067,493.711182 
	C579.410828,491.095642 579.539795,488.925812 579.380554,486.777405 
	C579.136230,483.481384 580.634766,482.657837 584.032898,483.618561 
	C584.032898,486.952972 584.032898,490.408081 584.032898,493.863190 
	C584.032898,497.169434 584.032898,500.475677 584.032898,504.465790 
	C575.460815,500.115540 567.326843,495.987579 558.689087,491.604004 
	C558.689087,496.255707 558.689087,500.207764 558.689087,504.594818 
	C557.112000,504.743927 555.779053,504.869934 554.209839,505.018311 
	C554.209839,498.204102 554.209839,491.771637 554.209839,484.464081 
	C556.789490,485.492157 559.065491,486.207489 561.163269,487.273407 
	C566.178955,489.821930 571.101379,492.553284 576.082336,495.171021 
	C577.450867,495.890259 579.191895,497.447144 579.406067,493.711182 
z"/>
<path fill="#105180" opacity="1.000000" stroke="none" 
	d="
M492.298462,499.135712 
	C494.985199,499.547729 497.285889,500.066681 499.575043,500.019958 
	C506.575745,499.877045 509.046021,497.209442 508.969299,490.281616 
	C508.945465,488.130157 508.965576,485.978210 508.965576,483.433380 
	C510.247162,483.305420 511.444916,483.185852 513.119690,483.018616 
	C513.119690,487.385101 513.495422,491.509216 513.028076,495.535461 
	C512.391052,501.023010 507.065552,504.236053 498.861420,504.708618 
	C487.148529,505.383270 479.415649,495.425293 483.420776,484.584991 
	C483.772491,483.632965 485.822723,483.308441 487.120026,482.674866 
	C489.730865,488.337219 484.816162,495.394653 492.298462,499.135712 
z"/>
<path fill="#EEF2F3" opacity="1.000000" stroke="none" 
	d="
M491.741180,276.506561 
	C489.772400,278.293945 487.977264,279.783478 486.032257,281.560974 
	C485.882355,281.848969 485.921753,281.868164 485.626373,281.890717 
	C485.151917,281.967560 484.972839,282.021881 484.768433,281.603333 
	C484.738281,269.142792 484.782928,257.154816 484.713104,245.167465 
	C484.656006,235.361282 484.462524,225.555893 484.329529,215.750153 
	C484.906677,215.857513 485.483826,215.964890 486.453552,216.289230 
	C492.327789,221.643173 497.809448,226.780136 503.596985,232.065277 
	C509.687439,237.622360 515.471985,243.031235 521.585571,248.747833 
	C516.624512,253.333847 511.900940,257.700287 507.033325,262.353210 
	C501.897736,267.162659 496.906281,271.685669 491.741180,276.506561 
z"/>
<path fill="#0370C2" opacity="1.000000" stroke="none" 
	d="
M484.230957,215.667572 
	C484.462524,225.555893 484.656006,235.361282 484.713104,245.167465 
	C484.782928,257.154816 484.738281,269.142792 484.571289,281.682770 
	C484.182312,282.433624 484.038757,282.675842 483.968811,282.961700 
	C483.649139,281.393036 483.055420,279.825073 483.051178,278.255554 
	C482.995239,257.470032 483.022095,236.684296 483.268738,215.451065 
	C483.509247,215.003525 483.958405,215.103928 483.958405,215.103928 
	C483.978180,215.278107 484.036194,215.438461 484.230957,215.667572 
z"/>
<path fill="#2176BD" opacity="1.000000" stroke="none" 
	d="
M484.158081,283.179626 
	C484.038757,282.675842 484.182312,282.433624 484.596619,282.155609 
	C484.972839,282.021881 485.151917,281.967560 485.609863,281.881500 
	C485.374878,282.365662 484.861084,282.881592 484.158081,283.179626 
z"/>
<path fill="#2176BD" opacity="1.000000" stroke="none" 
	d="
M483.974060,214.829041 
	C483.958405,215.103928 483.509247,215.003525 483.281097,214.979828 
	C483.156219,214.655014 483.335754,214.409744 483.795776,214.110153 
	C484.000000,214.000000 484.004852,214.003677 484.004852,214.003677 
	C483.999817,214.187180 483.994751,214.370667 483.974060,214.829041 
z"/>
<path fill="#2176BD" opacity="1.000000" stroke="none" 
	d="
M483.998138,213.997498 
	C484.080231,213.962677 484.164154,213.930328 484.126465,213.950836 
	C484.004852,214.003677 484.000000,214.000000 483.998138,213.997498 
z"/>
<path fill="#EEF1F2" opacity="1.000000" stroke="none" 
	d="
M647.679199,490.139435 
	C650.993347,494.852814 649.364746,499.022919 643.832581,499.856964 
	C639.145691,500.563507 634.334534,500.445526 629.290344,500.707336 
	C629.290344,496.313354 629.290344,492.541595 629.290344,487.965302 
	C635.232727,488.601257 641.470032,486.422638 647.679199,490.139435 
z"/>
<path fill="#EEF1F2" opacity="1.000000" stroke="none" 
	d="
M417.367859,494.070221 
	C416.963501,489.267059 418.959320,487.662720 423.218964,487.979095 
	C426.845734,488.248474 430.514801,488.150940 434.154358,487.982330 
	C437.108490,487.845520 438.213837,488.904663 438.296570,491.957092 
	C438.511932,499.905701 438.647186,499.918579 430.886230,500.235901 
	C428.405304,500.337372 425.914886,500.241577 423.437469,500.385590 
	C419.249481,500.629089 416.746521,499.242432 417.367859,494.070221 
z"/>
</svg>